<svg width="87" height="34" viewBox="0 0 87 34" fill="none" xmlns="http://www.w3.org/2000/svg">
<rect width="87" height="34" fill="#EFEFEF"/>
<path d="M15.1895 12.0469H21.2051V13.1475H18.8193V20.9062H21.2051V22H15.1895V20.9062H17.5205V13.1475H15.1895V12.0469ZM23.2422 18.2334C23.2422 17.7002 23.3197 17.2057 23.4746 16.75C23.6296 16.2897 23.8529 15.891 24.1445 15.5537C24.4316 15.2165 24.7826 14.9521 25.1973 14.7607C25.612 14.5648 26.0791 14.4668 26.5986 14.4668C27.1227 14.4668 27.5921 14.5648 28.0068 14.7607C28.4261 14.9521 28.7816 15.2165 29.0732 15.5537C29.3604 15.891 29.5814 16.2897 29.7363 16.75C29.8913 17.2057 29.9688 17.7002 29.9688 18.2334V18.3838C29.9688 18.917 29.8913 19.4115 29.7363 19.8672C29.5814 20.3229 29.3604 20.7194 29.0732 21.0566C28.7816 21.3939 28.4284 21.6582 28.0137 21.8496C27.599 22.041 27.1318 22.1367 26.6123 22.1367C26.0882 22.1367 25.6165 22.041 25.1973 21.8496C24.7826 21.6582 24.4316 21.3939 24.1445 21.0566C23.8529 20.7194 23.6296 20.3229 23.4746 19.8672C23.3197 19.4115 23.2422 18.917 23.2422 18.3838V18.2334ZM24.5068 18.3838C24.5068 18.7484 24.5501 19.097 24.6367 19.4297C24.7233 19.7578 24.8555 20.0472 25.0332 20.2979C25.2064 20.5485 25.4251 20.7467 25.6895 20.8926C25.9538 21.0384 26.2614 21.1113 26.6123 21.1113C26.9587 21.1113 27.2617 21.0384 27.5215 20.8926C27.7858 20.7467 28.0068 20.5485 28.1846 20.2979C28.3577 20.0472 28.4876 19.7578 28.5742 19.4297C28.6608 19.097 28.7041 18.7484 28.7041 18.3838V18.2334C28.7041 17.8734 28.6585 17.5293 28.5674 17.2012C28.4808 16.8685 28.3509 16.5768 28.1777 16.3262C28 16.0755 27.779 15.8773 27.5146 15.7314C27.2549 15.5811 26.9495 15.5059 26.5986 15.5059C26.2477 15.5059 25.9424 15.5811 25.6826 15.7314C25.4229 15.8773 25.2064 16.0755 25.0332 16.3262C24.8555 16.5768 24.7233 16.8685 24.6367 17.2012C24.5501 17.5293 24.5068 17.8734 24.5068 18.2334V18.3838ZM36.9209 20.0381C36.9209 19.8877 36.8913 19.7533 36.832 19.6348C36.7728 19.5117 36.6725 19.4001 36.5312 19.2998C36.39 19.1995 36.2031 19.1084 35.9707 19.0264C35.7383 18.9398 35.4489 18.8623 35.1025 18.7939C34.6787 18.7074 34.2913 18.6025 33.9404 18.4795C33.5941 18.3564 33.2979 18.2083 33.0518 18.0352C32.8011 17.8665 32.6074 17.6683 32.4707 17.4404C32.334 17.208 32.2656 16.9391 32.2656 16.6338C32.2656 16.333 32.3363 16.0527 32.4775 15.793C32.6188 15.5286 32.8171 15.2985 33.0723 15.1025C33.3275 14.9066 33.6305 14.7516 33.9814 14.6377C34.3369 14.5238 34.7266 14.4668 35.1504 14.4668C35.6061 14.4668 36.0163 14.526 36.3809 14.6445C36.7454 14.763 37.0553 14.9271 37.3105 15.1367C37.5658 15.3464 37.7617 15.5924 37.8984 15.875C38.0397 16.153 38.1104 16.4538 38.1104 16.7773H36.8457C36.8457 16.6178 36.8047 16.4629 36.7227 16.3125C36.6406 16.1576 36.5267 16.0208 36.3809 15.9023C36.235 15.7839 36.0573 15.6882 35.8477 15.6152C35.6426 15.5423 35.4102 15.5059 35.1504 15.5059C34.8815 15.5059 34.6445 15.5355 34.4395 15.5947C34.2389 15.654 34.0726 15.7337 33.9404 15.834C33.8037 15.9342 33.7012 16.0505 33.6328 16.1826C33.5645 16.3148 33.5303 16.4515 33.5303 16.5928C33.5303 16.7386 33.5576 16.8685 33.6123 16.9824C33.667 17.0964 33.7627 17.1989 33.8994 17.29C34.0316 17.3812 34.2093 17.4632 34.4326 17.5361C34.6605 17.609 34.9476 17.6797 35.2939 17.748C35.7497 17.8438 36.1576 17.9554 36.5176 18.083C36.8776 18.2061 37.1807 18.3542 37.4268 18.5273C37.6729 18.7051 37.8597 18.9102 37.9873 19.1426C38.1195 19.375 38.1855 19.6439 38.1855 19.9492C38.1855 20.2773 38.1104 20.5758 37.96 20.8447C37.8141 21.1136 37.609 21.3438 37.3447 21.5352C37.0804 21.7266 36.7637 21.8747 36.3945 21.9795C36.0254 22.0843 35.6221 22.1367 35.1846 22.1367C34.6833 22.1367 34.2367 22.0706 33.8447 21.9385C33.4528 21.8018 33.1224 21.6217 32.8535 21.3984C32.5801 21.1797 32.3704 20.9245 32.2246 20.6328C32.0833 20.3411 32.0127 20.0381 32.0127 19.7236H33.2773C33.2956 19.9834 33.3639 20.2021 33.4824 20.3799C33.6055 20.5576 33.7581 20.7012 33.9404 20.8105C34.1182 20.9199 34.3164 20.9974 34.5352 21.043C34.7539 21.0885 34.9704 21.1113 35.1846 21.1113C35.5218 21.1113 35.8158 21.0726 36.0664 20.9951C36.3171 20.9131 36.513 20.8014 36.6543 20.6602C36.7409 20.5736 36.807 20.4779 36.8525 20.373C36.8981 20.2682 36.9209 20.1566 36.9209 20.0381ZM53.6826 22C53.6325 21.9043 53.5915 21.7858 53.5596 21.6445C53.5322 21.4987 53.5117 21.3483 53.498 21.1934C53.3704 21.321 53.2269 21.4417 53.0674 21.5557C52.9124 21.6696 52.7415 21.7699 52.5547 21.8564C52.3633 21.943 52.1605 22.0114 51.9463 22.0615C51.7321 22.1117 51.5042 22.1367 51.2627 22.1367C50.8708 22.1367 50.5153 22.0798 50.1963 21.9658C49.8818 21.8519 49.6152 21.6969 49.3965 21.501C49.1732 21.3096 49 21.0817 48.877 20.8174C48.7585 20.5485 48.6992 20.2591 48.6992 19.9492C48.6992 19.5436 48.779 19.1882 48.9385 18.8828C49.1025 18.5775 49.3327 18.3223 49.6289 18.1172C49.9251 17.9167 50.2806 17.7663 50.6953 17.666C51.1146 17.5658 51.5817 17.5156 52.0967 17.5156H53.4775V16.9346C53.4775 16.7113 53.4365 16.5107 53.3545 16.333C53.2725 16.1553 53.1562 16.0026 53.0059 15.875C52.8555 15.752 52.6709 15.6562 52.4521 15.5879C52.238 15.5195 51.9964 15.4854 51.7275 15.4854C51.4769 15.4854 51.2513 15.5173 51.0508 15.5811C50.8548 15.6449 50.6885 15.7292 50.5518 15.834C50.415 15.9388 50.3079 16.0641 50.2305 16.21C50.1576 16.3512 50.1211 16.4993 50.1211 16.6543H48.8496C48.8542 16.3854 48.9225 16.1211 49.0547 15.8613C49.1914 15.6016 49.3874 15.3669 49.6426 15.1572C49.8932 14.9521 50.1986 14.7858 50.5586 14.6582C50.9232 14.5306 51.3356 14.4668 51.7959 14.4668C52.2152 14.4668 52.6048 14.5192 52.9648 14.624C53.3249 14.7243 53.637 14.877 53.9014 15.082C54.1611 15.2917 54.3662 15.5514 54.5166 15.8613C54.667 16.1712 54.7422 16.5335 54.7422 16.9482V20.3867C54.7422 20.6328 54.765 20.8949 54.8105 21.1729C54.8561 21.4463 54.9199 21.6855 55.002 21.8906V22H53.6826ZM51.4473 21.0361C51.6934 21.0361 51.9235 21.0042 52.1377 20.9404C52.3519 20.8766 52.5479 20.7923 52.7256 20.6875C52.8988 20.5827 53.0492 20.4642 53.1768 20.332C53.3044 20.1953 53.4046 20.054 53.4775 19.9082V18.4111H52.3018C51.8643 18.4111 51.4814 18.4499 51.1533 18.5273C50.8298 18.6003 50.5723 18.7142 50.3809 18.8691C50.2441 18.9785 50.1393 19.1084 50.0664 19.2588C49.998 19.4092 49.9639 19.5801 49.9639 19.7715C49.9639 19.9538 49.9935 20.1224 50.0527 20.2773C50.1165 20.4323 50.21 20.5645 50.333 20.6738C50.4561 20.7878 50.611 20.8766 50.7979 20.9404C50.9847 21.0042 51.2012 21.0361 51.4473 21.0361ZM57.2236 24.8438V14.6035H58.3789L58.4404 15.4102C58.5407 15.2826 58.6501 15.1686 58.7686 15.0684C58.887 14.9635 59.0146 14.8747 59.1514 14.8018C59.3428 14.6924 59.5547 14.6104 59.7871 14.5557C60.0241 14.4964 60.277 14.4668 60.5459 14.4668C61.0199 14.4668 61.4391 14.5602 61.8037 14.7471C62.1683 14.9339 62.4736 15.1937 62.7197 15.5264C62.9658 15.859 63.1527 16.2578 63.2803 16.7227C63.4079 17.1829 63.4717 17.6888 63.4717 18.2402V18.3838C63.4717 18.9124 63.4079 19.4069 63.2803 19.8672C63.1527 20.3229 62.9658 20.7194 62.7197 21.0566C62.4736 21.3939 62.1683 21.6582 61.8037 21.8496C61.4437 22.041 61.0312 22.1367 60.5664 22.1367C60.2839 22.1367 60.0195 22.1071 59.7734 22.0479C59.5319 21.9886 59.3132 21.9043 59.1172 21.7949C58.9987 21.7266 58.887 21.6514 58.7822 21.5693C58.6774 21.4827 58.5794 21.3893 58.4883 21.2891V24.8438H57.2236ZM62.207 18.2402C62.207 17.8802 62.166 17.5384 62.084 17.2148C62.0065 16.8867 61.8857 16.5973 61.7217 16.3467C61.5531 16.1006 61.3411 15.9046 61.0859 15.7588C60.8307 15.613 60.5254 15.54 60.1699 15.54C59.974 15.54 59.7917 15.5628 59.623 15.6084C59.459 15.654 59.3109 15.7201 59.1787 15.8066C59.0329 15.8932 58.903 16.0003 58.7891 16.1279C58.6751 16.2555 58.5749 16.3968 58.4883 16.5518V20.1133C58.5658 20.25 58.6546 20.3776 58.7549 20.4961C58.8551 20.6146 58.9691 20.7148 59.0967 20.7969C59.2425 20.8926 59.4043 20.9678 59.582 21.0225C59.7643 21.0771 59.9648 21.1045 60.1836 21.1045C60.5345 21.1045 60.8376 21.0316 61.0928 20.8857C61.348 20.7354 61.5576 20.5348 61.7217 20.2842C61.8857 20.0335 62.0065 19.7441 62.084 19.416C62.166 19.0879 62.207 18.7438 62.207 18.3838V18.2402ZM65.6318 24.8438V14.6035H66.7871L66.8486 15.4102C66.9489 15.2826 67.0583 15.1686 67.1768 15.0684C67.2952 14.9635 67.4229 14.8747 67.5596 14.8018C67.751 14.6924 67.9629 14.6104 68.1953 14.5557C68.4323 14.4964 68.6852 14.4668 68.9541 14.4668C69.4281 14.4668 69.8473 14.5602 70.2119 14.7471C70.5765 14.9339 70.8818 15.1937 71.1279 15.5264C71.374 15.859 71.5609 16.2578 71.6885 16.7227C71.8161 17.1829 71.8799 17.6888 71.8799 18.2402V18.3838C71.8799 18.9124 71.8161 19.4069 71.6885 19.8672C71.5609 20.3229 71.374 20.7194 71.1279 21.0566C70.8818 21.3939 70.5765 21.6582 70.2119 21.8496C69.8519 22.041 69.4395 22.1367 68.9746 22.1367C68.6921 22.1367 68.4277 22.1071 68.1816 22.0479C67.9401 21.9886 67.7214 21.9043 67.5254 21.7949C67.4069 21.7266 67.2952 21.6514 67.1904 21.5693C67.0856 21.4827 66.9876 21.3893 66.8965 21.2891V24.8438H65.6318ZM70.6152 18.2402C70.6152 17.8802 70.5742 17.5384 70.4922 17.2148C70.4147 16.8867 70.2939 16.5973 70.1299 16.3467C69.9613 16.1006 69.7493 15.9046 69.4941 15.7588C69.2389 15.613 68.9336 15.54 68.5781 15.54C68.3822 15.54 68.1999 15.5628 68.0312 15.6084C67.8672 15.654 67.7191 15.7201 67.5869 15.8066C67.4411 15.8932 67.3112 16.0003 67.1973 16.1279C67.0833 16.2555 66.9831 16.3968 66.8965 16.5518V20.1133C66.974 20.25 67.0628 20.3776 67.1631 20.4961C67.2633 20.6146 67.3773 20.7148 67.5049 20.7969C67.6507 20.8926 67.8125 20.9678 67.9902 21.0225C68.1725 21.0771 68.373 21.1045 68.5918 21.1045C68.9427 21.1045 69.2458 21.0316 69.501 20.8857C69.7562 20.7354 69.9658 20.5348 70.1299 20.2842C70.2939 20.0335 70.4147 19.7441 70.4922 19.416C70.5742 19.0879 70.6152 18.7438 70.6152 18.3838V18.2402Z" fill="#333333"/>
</svg>
