<svg width="96" height="34" viewBox="0 0 96 34" fill="none" xmlns="http://www.w3.org/2000/svg">
<rect width="96" height="34" fill="#FFF7D3"/>
<path d="M15.1758 22V12.0469H18.1357C18.5459 12.0514 18.9469 12.1061 19.3389 12.2109C19.7308 12.3112 20.0794 12.4684 20.3848 12.6826C20.6901 12.8968 20.9339 13.1702 21.1162 13.5029C21.2985 13.8356 21.3874 14.2344 21.3828 14.6992C21.3783 14.959 21.335 15.196 21.2529 15.4102C21.1755 15.6243 21.0684 15.8158 20.9316 15.9844C20.7904 16.1576 20.6331 16.3034 20.46 16.4219C20.2913 16.5404 20.0863 16.652 19.8447 16.7568V16.7773C20.0954 16.8366 20.3369 16.9437 20.5693 17.0986C20.8018 17.2536 20.9932 17.4245 21.1436 17.6113C21.3031 17.8164 21.4261 18.0465 21.5127 18.3018C21.6038 18.557 21.6494 18.8327 21.6494 19.1289C21.654 19.5938 21.5651 20.0039 21.3828 20.3594C21.2005 20.7148 20.9567 21.0111 20.6514 21.248C20.346 21.4896 19.9928 21.6742 19.5918 21.8018C19.1953 21.9294 18.7852 21.9954 18.3613 22H15.1758ZM16.4473 17.3447V20.9268H18.3955C18.6598 20.9222 18.9105 20.8789 19.1475 20.7969C19.3844 20.7103 19.5941 20.5918 19.7764 20.4414C19.9587 20.291 20.1022 20.1064 20.207 19.8877C20.3164 19.6689 20.3711 19.4206 20.3711 19.1426C20.3757 18.86 20.3278 18.6094 20.2275 18.3906C20.1318 18.1719 19.9974 17.985 19.8242 17.8301C19.651 17.6797 19.4482 17.5635 19.2158 17.4814C18.9834 17.3994 18.7327 17.3538 18.4639 17.3447H16.4473ZM16.4473 16.292H18.2109C18.4479 16.2874 18.6803 16.251 18.9082 16.1826C19.1361 16.1097 19.3389 16.0049 19.5166 15.8682C19.6943 15.736 19.8379 15.5719 19.9473 15.376C20.0566 15.18 20.1113 14.9521 20.1113 14.6924C20.1113 14.4144 20.0566 14.1774 19.9473 13.9814C19.8424 13.7855 19.7012 13.6237 19.5234 13.4961C19.3411 13.373 19.1315 13.2819 18.8945 13.2227C18.6621 13.1634 18.4229 13.1315 18.1768 13.127H16.4473V16.292ZM28.4443 14.4668C28.6768 14.4668 28.9183 14.4827 29.1689 14.5146C29.4242 14.5465 29.6156 14.5898 29.7432 14.6445L29.5723 15.8818C29.3262 15.8271 29.0915 15.7884 28.8682 15.7656C28.6494 15.7383 28.4193 15.7246 28.1777 15.7246C27.8678 15.7246 27.5876 15.7633 27.3369 15.8408C27.0863 15.9137 26.8675 16.0231 26.6807 16.1689C26.512 16.2965 26.3639 16.4538 26.2363 16.6406C26.1133 16.8229 26.0107 17.028 25.9287 17.2559V22H24.6572V14.6035H25.8604L25.915 15.5947L25.9219 15.7793C26.2227 15.3737 26.5827 15.0547 27.002 14.8223C27.4258 14.5853 27.9066 14.4668 28.4443 14.4668ZM36.8662 22C36.8161 21.9043 36.7751 21.7858 36.7432 21.6445C36.7158 21.4987 36.6953 21.3483 36.6816 21.1934C36.554 21.321 36.4105 21.4417 36.251 21.5557C36.096 21.6696 35.9251 21.7699 35.7383 21.8564C35.5469 21.943 35.3441 22.0114 35.1299 22.0615C34.9157 22.1117 34.6878 22.1367 34.4463 22.1367C34.0544 22.1367 33.6989 22.0798 33.3799 21.9658C33.0654 21.8519 32.7988 21.6969 32.5801 21.501C32.3568 21.3096 32.1836 21.0817 32.0605 20.8174C31.9421 20.5485 31.8828 20.2591 31.8828 19.9492C31.8828 19.5436 31.9626 19.1882 32.1221 18.8828C32.2861 18.5775 32.5163 18.3223 32.8125 18.1172C33.1087 17.9167 33.4642 17.7663 33.8789 17.666C34.2982 17.5658 34.7653 17.5156 35.2803 17.5156H36.6611V16.9346C36.6611 16.7113 36.6201 16.5107 36.5381 16.333C36.4561 16.1553 36.3398 16.0026 36.1895 15.875C36.0391 15.752 35.8545 15.6562 35.6357 15.5879C35.4215 15.5195 35.18 15.4854 34.9111 15.4854C34.6605 15.4854 34.4349 15.5173 34.2344 15.5811C34.0384 15.6449 33.8721 15.7292 33.7354 15.834C33.5986 15.9388 33.4915 16.0641 33.4141 16.21C33.3411 16.3512 33.3047 16.4993 33.3047 16.6543H32.0332C32.0378 16.3854 32.1061 16.1211 32.2383 15.8613C32.375 15.6016 32.571 15.3669 32.8262 15.1572C33.0768 14.9521 33.3822 14.7858 33.7422 14.6582C34.1068 14.5306 34.5192 14.4668 34.9795 14.4668C35.3988 14.4668 35.7884 14.5192 36.1484 14.624C36.5085 14.7243 36.8206 14.877 37.085 15.082C37.3447 15.2917 37.5498 15.5514 37.7002 15.8613C37.8506 16.1712 37.9258 16.5335 37.9258 16.9482V20.3867C37.9258 20.6328 37.9486 20.8949 37.9941 21.1729C38.0397 21.4463 38.1035 21.6855 38.1855 21.8906V22H36.8662ZM34.6309 21.0361C34.877 21.0361 35.1071 21.0042 35.3213 20.9404C35.5355 20.8766 35.7314 20.7923 35.9092 20.6875C36.0824 20.5827 36.2327 20.4642 36.3604 20.332C36.488 20.1953 36.5882 20.054 36.6611 19.9082V18.4111H35.4854C35.0479 18.4111 34.665 18.4499 34.3369 18.5273C34.0133 18.6003 33.7559 18.7142 33.5645 18.8691C33.4277 18.9785 33.3229 19.1084 33.25 19.2588C33.1816 19.4092 33.1475 19.5801 33.1475 19.7715C33.1475 19.9538 33.1771 20.1224 33.2363 20.2773C33.3001 20.4323 33.3936 20.5645 33.5166 20.6738C33.6396 20.7878 33.7946 20.8766 33.9814 20.9404C34.1683 21.0042 34.3848 21.0361 34.6309 21.0361ZM40.4141 22V14.6035H41.5488L41.6377 15.6973C41.7471 15.5423 41.8656 15.401 41.9932 15.2734C42.1253 15.1413 42.2643 15.0273 42.4102 14.9316C42.6289 14.7858 42.8659 14.6742 43.1211 14.5967C43.3809 14.5146 43.6543 14.4714 43.9414 14.4668C44.3288 14.4668 44.6797 14.5215 44.9941 14.6309C45.3132 14.7402 45.5843 14.9111 45.8076 15.1436C46.0309 15.376 46.2018 15.6722 46.3203 16.0322C46.4434 16.3877 46.5049 16.8115 46.5049 17.3037V22H45.2402V17.3311C45.2402 17.0029 45.2038 16.7249 45.1309 16.4971C45.0579 16.2692 44.9508 16.0846 44.8096 15.9434C44.6637 15.8021 44.486 15.6995 44.2764 15.6357C44.0713 15.5719 43.8343 15.54 43.5654 15.54C43.333 15.54 43.1165 15.5742 42.916 15.6426C42.7155 15.7064 42.5309 15.7952 42.3623 15.9092C42.2256 16.0094 42.098 16.1257 41.9795 16.2578C41.8656 16.39 41.7653 16.5358 41.6787 16.6953V22H40.4141ZM48.583 18.2402C48.583 17.6888 48.6514 17.1829 48.7881 16.7227C48.9294 16.2578 49.1299 15.859 49.3896 15.5264C49.6449 15.1937 49.9548 14.9339 50.3193 14.7471C50.6839 14.5602 51.0918 14.4668 51.543 14.4668C51.985 14.4668 52.3701 14.542 52.6982 14.6924C53.0309 14.8382 53.318 15.0524 53.5596 15.335V11.5H54.8242V22H53.6621L53.6074 21.2207C53.3613 21.5215 53.0674 21.7493 52.7256 21.9043C52.3838 22.0592 51.985 22.1367 51.5293 22.1367C51.0827 22.1367 50.6771 22.041 50.3125 21.8496C49.9525 21.6582 49.6449 21.3939 49.3896 21.0566C49.1344 20.7194 48.9362 20.3229 48.7949 19.8672C48.6536 19.4069 48.583 18.9124 48.583 18.3838V18.2402ZM49.8477 18.3838C49.8477 18.7438 49.8864 19.0856 49.9639 19.4092C50.0413 19.7327 50.1621 20.0176 50.3262 20.2637C50.4857 20.5098 50.6908 20.7057 50.9414 20.8516C51.1921 20.9928 51.4928 21.0635 51.8438 21.0635C52.2676 21.0635 52.6185 20.9678 52.8965 20.7764C53.1745 20.585 53.3955 20.3275 53.5596 20.0039V16.5723C53.3955 16.2715 53.1745 16.0254 52.8965 15.834C52.6185 15.638 52.2721 15.54 51.8574 15.54C51.502 15.54 51.1966 15.613 50.9414 15.7588C50.6908 15.9046 50.4857 16.1006 50.3262 16.3467C50.1621 16.5973 50.0413 16.8867 49.9639 17.2148C49.8864 17.5384 49.8477 17.8802 49.8477 18.2402V18.3838ZM57.4287 14.6035H61.209V20.9062H63.6221V22H57.4287V20.9062H59.9443V15.7041H57.4287V14.6035ZM59.7803 12.6621C59.7803 12.5527 59.7962 12.4502 59.8281 12.3545C59.8646 12.2588 59.9193 12.1768 59.9922 12.1084C60.0514 12.0492 60.1266 12.0036 60.2178 11.9717C60.3135 11.9352 60.4206 11.917 60.5391 11.917C60.6576 11.917 60.7624 11.9352 60.8535 11.9717C60.9447 12.0036 61.0199 12.0492 61.0791 12.1084C61.152 12.1722 61.2067 12.252 61.2432 12.3477C61.2796 12.4434 61.2979 12.5482 61.2979 12.6621C61.2979 12.8672 61.234 13.0381 61.1064 13.1748C60.9788 13.3115 60.7897 13.3799 60.5391 13.3799C60.2839 13.3799 60.0924 13.3115 59.9648 13.1748C59.8418 13.0381 59.7803 12.8672 59.7803 12.6621ZM65.6387 22V14.6035H66.7734L66.8623 15.6973C66.9717 15.5423 67.0902 15.401 67.2178 15.2734C67.3499 15.1413 67.4889 15.0273 67.6348 14.9316C67.8535 14.7858 68.0905 14.6742 68.3457 14.5967C68.6055 14.5146 68.8789 14.4714 69.166 14.4668C69.5534 14.4668 69.9043 14.5215 70.2188 14.6309C70.5378 14.7402 70.8089 14.9111 71.0322 15.1436C71.2555 15.376 71.4264 15.6722 71.5449 16.0322C71.668 16.3877 71.7295 16.8115 71.7295 17.3037V22H70.4648V17.3311C70.4648 17.0029 70.4284 16.7249 70.3555 16.4971C70.2826 16.2692 70.1755 16.0846 70.0342 15.9434C69.8883 15.8021 69.7106 15.6995 69.501 15.6357C69.2959 15.5719 69.0589 15.54 68.79 15.54C68.5576 15.54 68.3411 15.5742 68.1406 15.6426C67.9401 15.7064 67.7555 15.7952 67.5869 15.9092C67.4502 16.0094 67.3226 16.1257 67.2041 16.2578C67.0902 16.39 66.9899 16.5358 66.9033 16.6953V22H65.6387ZM73.8145 18.2402C73.8145 17.6888 73.8805 17.1829 74.0127 16.7227C74.1494 16.2578 74.3454 15.859 74.6006 15.5264C74.8558 15.1937 75.1657 14.9339 75.5303 14.7471C75.8949 14.5602 76.3073 14.4668 76.7676 14.4668C77.0638 14.4668 77.335 14.501 77.5811 14.5693C77.8317 14.6377 78.0573 14.738 78.2578 14.8701C78.3672 14.9385 78.4697 15.0182 78.5654 15.1094C78.6657 15.2005 78.7591 15.3008 78.8457 15.4102L78.9072 14.6035H80.0557V21.8428C80.0557 22.3304 79.9782 22.7633 79.8232 23.1416C79.6729 23.5199 79.4609 23.8411 79.1875 24.1055C78.9095 24.3698 78.5791 24.5703 78.1963 24.707C77.8135 24.8438 77.3896 24.9121 76.9248 24.9121C76.7334 24.9121 76.5146 24.8893 76.2686 24.8438C76.0225 24.8027 75.7741 24.7321 75.5234 24.6318C75.2682 24.5361 75.0221 24.4062 74.7852 24.2422C74.5527 24.0781 74.3522 23.8753 74.1836 23.6338L74.8398 22.875C74.9948 23.0618 75.1543 23.2191 75.3184 23.3467C75.4824 23.4788 75.6488 23.5837 75.8174 23.6611C75.986 23.7386 76.1546 23.7933 76.3232 23.8252C76.4919 23.8617 76.6605 23.8799 76.8291 23.8799C77.1299 23.8799 77.401 23.8366 77.6426 23.75C77.8841 23.6634 78.0915 23.5358 78.2646 23.3672C78.4333 23.2031 78.5632 22.998 78.6543 22.752C78.7454 22.5059 78.791 22.2233 78.791 21.9043V21.2686C78.6953 21.3779 78.5928 21.4782 78.4834 21.5693C78.3786 21.6605 78.2646 21.7402 78.1416 21.8086C77.9502 21.9134 77.7383 21.9932 77.5059 22.0479C77.2734 22.1071 77.0228 22.1367 76.7539 22.1367C76.3027 22.1367 75.8949 22.041 75.5303 21.8496C75.1657 21.6582 74.8581 21.3939 74.6074 21.0566C74.3522 20.7194 74.1562 20.3229 74.0195 19.8672C73.8828 19.4069 73.8145 18.9124 73.8145 18.3838V18.2402ZM75.0791 18.3838C75.0791 18.7438 75.1156 19.0856 75.1885 19.4092C75.266 19.7327 75.3867 20.0176 75.5508 20.2637C75.7103 20.5098 75.9154 20.7057 76.166 20.8516C76.4167 20.9928 76.7174 21.0635 77.0684 21.0635C77.2871 21.0635 77.4831 21.0384 77.6562 20.9883C77.834 20.9336 77.9935 20.8584 78.1348 20.7627C78.2715 20.667 78.3945 20.5531 78.5039 20.4209C78.6133 20.2887 78.709 20.1429 78.791 19.9834V16.5928C78.709 16.4378 78.6133 16.2965 78.5039 16.1689C78.3945 16.0413 78.2692 15.9297 78.1279 15.834C77.9867 15.7428 77.8294 15.6722 77.6562 15.6221C77.4831 15.5674 77.2917 15.54 77.082 15.54C76.7266 15.54 76.4212 15.613 76.166 15.7588C75.9154 15.9046 75.7103 16.1006 75.5508 16.3467C75.3867 16.5973 75.266 16.8867 75.1885 17.2148C75.1156 17.5384 75.0791 17.8802 75.0791 18.2402V18.3838Z" fill="#333333"/>
</svg>
