<svg width="121" height="34" viewBox="0 0 121 34" fill="none" xmlns="http://www.w3.org/2000/svg">
<rect width="121" height="34" fill="#E8F7FF"/>
<path d="M21.4375 12.0469L21.4512 18.7871C21.4512 19.252 21.3691 19.6872 21.2051 20.0928C21.041 20.4984 20.8154 20.8516 20.5283 21.1523C20.2412 21.4577 19.8994 21.6992 19.5029 21.877C19.1064 22.0501 18.6712 22.1367 18.1973 22.1367C17.7142 22.1367 17.2744 22.0501 16.8779 21.877C16.4814 21.7038 16.1419 21.4645 15.8594 21.1592C15.5768 20.8584 15.3558 20.5052 15.1963 20.0996C15.0368 19.6895 14.9548 19.252 14.9502 18.7871L14.9639 12.0469H16.167L16.1943 18.7871C16.1989 19.0833 16.2445 19.3682 16.3311 19.6416C16.4222 19.915 16.5521 20.1566 16.7207 20.3662C16.8848 20.5758 17.0898 20.7445 17.3359 20.8721C17.5866 20.9997 17.8737 21.0635 18.1973 21.0635C18.5208 21.0635 18.8057 21.002 19.0518 20.8789C19.2979 20.7513 19.5052 20.5804 19.6738 20.3662C19.8379 20.1566 19.9632 19.915 20.0498 19.6416C20.1364 19.3682 20.1842 19.0833 20.1934 18.7871L20.2139 12.0469H21.4375ZM23.5977 12.0469H29.6133V13.1475H27.2275V20.9062H29.6133V22H23.5977V20.9062H25.9287V13.1475H23.5977V12.0469ZM38.2539 12.0469L38.2676 18.7871C38.2676 19.252 38.1855 19.6872 38.0215 20.0928C37.8574 20.4984 37.6318 20.8516 37.3447 21.1523C37.0576 21.4577 36.7158 21.6992 36.3193 21.877C35.9229 22.0501 35.4876 22.1367 35.0137 22.1367C34.5306 22.1367 34.0908 22.0501 33.6943 21.877C33.2979 21.7038 32.9583 21.4645 32.6758 21.1592C32.3932 20.8584 32.1722 20.5052 32.0127 20.0996C31.8532 19.6895 31.7712 19.252 31.7666 18.7871L31.7803 12.0469H32.9834L33.0107 18.7871C33.0153 19.0833 33.0609 19.3682 33.1475 19.6416C33.2386 19.915 33.3685 20.1566 33.5371 20.3662C33.7012 20.5758 33.9062 20.7445 34.1523 20.8721C34.403 20.9997 34.6901 21.0635 35.0137 21.0635C35.3372 21.0635 35.6221 21.002 35.8682 20.8789C36.1143 20.7513 36.3216 20.5804 36.4902 20.3662C36.6543 20.1566 36.7796 19.915 36.8662 19.6416C36.9528 19.3682 37.0007 19.0833 37.0098 18.7871L37.0303 12.0469H38.2539ZM43.4971 15.9502L45.6436 12.0469H47.1338L44.2422 16.9824L47.2021 22H45.7256L43.5244 18.0215L41.3164 22H39.8193L42.7861 16.9824L39.8945 12.0469H41.3779L43.4971 15.9502ZM57.1006 22V12.0469H59.4043C59.7917 12.0514 60.1562 12.0924 60.498 12.1699C60.8444 12.2428 61.1634 12.3477 61.4551 12.4844C61.8607 12.6712 62.2184 12.9173 62.5283 13.2227C62.8428 13.5234 63.0934 13.8721 63.2803 14.2686C63.4489 14.6058 63.5765 14.9749 63.6631 15.376C63.7542 15.777 63.8021 16.2054 63.8066 16.6611V17.3926C63.8066 17.8301 63.7633 18.2448 63.6768 18.6367C63.5947 19.0286 63.474 19.3887 63.3145 19.7168C63.1504 20.0586 62.943 20.3685 62.6924 20.6465C62.4417 20.9245 62.1615 21.1615 61.8516 21.3574C61.5234 21.5625 61.152 21.7197 60.7373 21.8291C60.3271 21.9385 59.8828 21.9954 59.4043 22H57.1006ZM58.3857 13.0859V20.9678H59.4043C59.7689 20.9632 60.0993 20.9176 60.3955 20.8311C60.6963 20.7445 60.9629 20.6214 61.1953 20.4619C61.4414 20.2979 61.6533 20.0973 61.8311 19.8604C62.0133 19.6188 62.1569 19.3499 62.2617 19.0537C62.3529 18.8122 62.4212 18.5524 62.4668 18.2744C62.5124 17.9919 62.5374 17.6979 62.542 17.3926V16.6475C62.5374 16.3376 62.5101 16.0413 62.46 15.7588C62.4144 15.4717 62.3438 15.2051 62.248 14.959C62.125 14.64 61.9587 14.3529 61.749 14.0977C61.5439 13.8379 61.291 13.6283 60.9902 13.4688C60.776 13.3503 60.5368 13.2591 60.2725 13.1953C60.0081 13.127 59.7188 13.0905 59.4043 13.0859H58.3857ZM68.9062 22.1367C68.3867 22.1367 67.9082 22.0479 67.4707 21.8701C67.0378 21.6924 66.6663 21.444 66.3564 21.125C66.0465 20.806 65.805 20.4277 65.6318 19.9902C65.4587 19.5527 65.3721 19.0765 65.3721 18.5615V18.2744C65.3721 17.6774 65.4678 17.1442 65.6592 16.6748C65.8506 16.2008 66.1058 15.7998 66.4248 15.4717C66.7393 15.1481 67.097 14.8997 67.498 14.7266C67.9036 14.5534 68.3184 14.4668 68.7422 14.4668C69.2754 14.4668 69.7402 14.5602 70.1367 14.7471C70.5378 14.9294 70.8704 15.1823 71.1348 15.5059C71.3991 15.834 71.5951 16.2191 71.7227 16.6611C71.8548 17.1032 71.9209 17.5817 71.9209 18.0967V18.6641H66.6367V18.7119C66.6686 19.0719 66.7393 19.3887 66.8486 19.6621C66.9626 19.9355 67.1175 20.1771 67.3135 20.3867C67.514 20.61 67.7555 20.7855 68.0381 20.9131C68.3206 21.0407 68.6328 21.1045 68.9746 21.1045C69.4258 21.1045 69.8268 21.0133 70.1777 20.8311C70.5286 20.6488 70.8203 20.4072 71.0527 20.1064L71.8252 20.708C71.5791 21.0817 71.21 21.4144 70.7178 21.7061C70.2301 21.9932 69.6263 22.1367 68.9062 22.1367ZM68.7422 15.5059C68.487 15.5059 68.2454 15.5537 68.0176 15.6494C67.7897 15.7406 67.5846 15.875 67.4023 16.0527C67.2201 16.235 67.0651 16.4583 66.9375 16.7227C66.8145 16.9824 66.7279 17.2832 66.6777 17.625H70.6562V17.5635C70.6562 17.3356 70.613 17.0918 70.5264 16.832C70.4398 16.5677 70.319 16.3398 70.1641 16.1484C70.0091 15.957 69.8132 15.8021 69.5762 15.6836C69.3438 15.5651 69.0658 15.5059 68.7422 15.5059ZM78.9619 20.0381C78.9619 19.8877 78.9323 19.7533 78.873 19.6348C78.8138 19.5117 78.7135 19.4001 78.5723 19.2998C78.431 19.1995 78.2441 19.1084 78.0117 19.0264C77.7793 18.9398 77.4899 18.8623 77.1436 18.7939C76.7197 18.7074 76.3324 18.6025 75.9814 18.4795C75.6351 18.3564 75.3389 18.2083 75.0928 18.0352C74.8421 17.8665 74.6484 17.6683 74.5117 17.4404C74.375 17.208 74.3066 16.9391 74.3066 16.6338C74.3066 16.333 74.3773 16.0527 74.5186 15.793C74.6598 15.5286 74.8581 15.2985 75.1133 15.1025C75.3685 14.9066 75.6715 14.7516 76.0225 14.6377C76.3779 14.5238 76.7676 14.4668 77.1914 14.4668C77.6471 14.4668 78.0573 14.526 78.4219 14.6445C78.7865 14.763 79.0964 14.9271 79.3516 15.1367C79.6068 15.3464 79.8027 15.5924 79.9395 15.875C80.0807 16.153 80.1514 16.4538 80.1514 16.7773H78.8867C78.8867 16.6178 78.8457 16.4629 78.7637 16.3125C78.6816 16.1576 78.5677 16.0208 78.4219 15.9023C78.276 15.7839 78.0983 15.6882 77.8887 15.6152C77.6836 15.5423 77.4512 15.5059 77.1914 15.5059C76.9225 15.5059 76.6855 15.5355 76.4805 15.5947C76.2799 15.654 76.1136 15.7337 75.9814 15.834C75.8447 15.9342 75.7422 16.0505 75.6738 16.1826C75.6055 16.3148 75.5713 16.4515 75.5713 16.5928C75.5713 16.7386 75.5986 16.8685 75.6533 16.9824C75.708 17.0964 75.8037 17.1989 75.9404 17.29C76.0726 17.3812 76.2503 17.4632 76.4736 17.5361C76.7015 17.609 76.9886 17.6797 77.335 17.748C77.7907 17.8438 78.1986 17.9554 78.5586 18.083C78.9186 18.2061 79.2217 18.3542 79.4678 18.5273C79.7139 18.7051 79.9007 18.9102 80.0283 19.1426C80.1605 19.375 80.2266 19.6439 80.2266 19.9492C80.2266 20.2773 80.1514 20.5758 80.001 20.8447C79.8551 21.1136 79.6501 21.3438 79.3857 21.5352C79.1214 21.7266 78.8047 21.8747 78.4355 21.9795C78.0664 22.0843 77.6631 22.1367 77.2256 22.1367C76.7243 22.1367 76.2777 22.0706 75.8857 21.9385C75.4938 21.8018 75.1634 21.6217 74.8945 21.3984C74.6211 21.1797 74.4115 20.9245 74.2656 20.6328C74.1243 20.3411 74.0537 20.0381 74.0537 19.7236H75.3184C75.3366 19.9834 75.4049 20.2021 75.5234 20.3799C75.6465 20.5576 75.7992 20.7012 75.9814 20.8105C76.1592 20.9199 76.3574 20.9974 76.5762 21.043C76.7949 21.0885 77.0114 21.1113 77.2256 21.1113C77.5628 21.1113 77.8568 21.0726 78.1074 20.9951C78.3581 20.9131 78.554 20.8014 78.6953 20.6602C78.7819 20.5736 78.848 20.4779 78.8936 20.373C78.9391 20.2682 78.9619 20.1566 78.9619 20.0381ZM82.6533 14.6035H86.4336V20.9062H88.8467V22H82.6533V20.9062H85.1689V15.7041H82.6533V14.6035ZM85.0049 12.6621C85.0049 12.5527 85.0208 12.4502 85.0527 12.3545C85.0892 12.2588 85.1439 12.1768 85.2168 12.1084C85.276 12.0492 85.3512 12.0036 85.4424 11.9717C85.5381 11.9352 85.6452 11.917 85.7637 11.917C85.8822 11.917 85.987 11.9352 86.0781 11.9717C86.1693 12.0036 86.2445 12.0492 86.3037 12.1084C86.3766 12.1722 86.4313 12.252 86.4678 12.3477C86.5042 12.4434 86.5225 12.5482 86.5225 12.6621C86.5225 12.8672 86.4587 13.0381 86.3311 13.1748C86.2035 13.3115 86.0143 13.3799 85.7637 13.3799C85.5085 13.3799 85.3171 13.3115 85.1895 13.1748C85.0664 13.0381 85.0049 12.8672 85.0049 12.6621ZM90.6309 18.2402C90.6309 17.6888 90.6969 17.1829 90.8291 16.7227C90.9658 16.2578 91.1618 15.859 91.417 15.5264C91.6722 15.1937 91.9821 14.9339 92.3467 14.7471C92.7113 14.5602 93.1237 14.4668 93.584 14.4668C93.8802 14.4668 94.1514 14.501 94.3975 14.5693C94.6481 14.6377 94.8737 14.738 95.0742 14.8701C95.1836 14.9385 95.2861 15.0182 95.3818 15.1094C95.4821 15.2005 95.5755 15.3008 95.6621 15.4102L95.7236 14.6035H96.8721V21.8428C96.8721 22.3304 96.7946 22.7633 96.6396 23.1416C96.4893 23.5199 96.2773 23.8411 96.0039 24.1055C95.7259 24.3698 95.3955 24.5703 95.0127 24.707C94.6299 24.8438 94.2061 24.9121 93.7412 24.9121C93.5498 24.9121 93.3311 24.8893 93.085 24.8438C92.8389 24.8027 92.5905 24.7321 92.3398 24.6318C92.0846 24.5361 91.8385 24.4062 91.6016 24.2422C91.3691 24.0781 91.1686 23.8753 91 23.6338L91.6562 22.875C91.8112 23.0618 91.9707 23.2191 92.1348 23.3467C92.2988 23.4788 92.4652 23.5837 92.6338 23.6611C92.8024 23.7386 92.971 23.7933 93.1396 23.8252C93.3083 23.8617 93.4769 23.8799 93.6455 23.8799C93.9463 23.8799 94.2174 23.8366 94.459 23.75C94.7005 23.6634 94.9079 23.5358 95.0811 23.3672C95.2497 23.2031 95.3796 22.998 95.4707 22.752C95.5618 22.5059 95.6074 22.2233 95.6074 21.9043V21.2686C95.5117 21.3779 95.4092 21.4782 95.2998 21.5693C95.195 21.6605 95.0811 21.7402 94.958 21.8086C94.7666 21.9134 94.5547 21.9932 94.3223 22.0479C94.0898 22.1071 93.8392 22.1367 93.5703 22.1367C93.1191 22.1367 92.7113 22.041 92.3467 21.8496C91.9821 21.6582 91.6745 21.3939 91.4238 21.0566C91.1686 20.7194 90.9727 20.3229 90.8359 19.8672C90.6992 19.4069 90.6309 18.9124 90.6309 18.3838V18.2402ZM91.8955 18.3838C91.8955 18.7438 91.932 19.0856 92.0049 19.4092C92.0824 19.7327 92.2031 20.0176 92.3672 20.2637C92.5267 20.5098 92.7318 20.7057 92.9824 20.8516C93.2331 20.9928 93.5339 21.0635 93.8848 21.0635C94.1035 21.0635 94.2995 21.0384 94.4727 20.9883C94.6504 20.9336 94.8099 20.8584 94.9512 20.7627C95.0879 20.667 95.2109 20.5531 95.3203 20.4209C95.4297 20.2887 95.5254 20.1429 95.6074 19.9834V16.5928C95.5254 16.4378 95.4297 16.2965 95.3203 16.1689C95.2109 16.0413 95.0856 15.9297 94.9443 15.834C94.8031 15.7428 94.6458 15.6722 94.4727 15.6221C94.2995 15.5674 94.1081 15.54 93.8984 15.54C93.543 15.54 93.2376 15.613 92.9824 15.7588C92.7318 15.9046 92.5267 16.1006 92.3672 16.3467C92.2031 16.5973 92.0824 16.8867 92.0049 17.2148C91.932 17.5384 91.8955 17.8802 91.8955 18.2402V18.3838ZM99.2715 22V14.6035H100.406L100.495 15.6973C100.604 15.5423 100.723 15.401 100.851 15.2734C100.983 15.1413 101.122 15.0273 101.268 14.9316C101.486 14.7858 101.723 14.6742 101.979 14.5967C102.238 14.5146 102.512 14.4714 102.799 14.4668C103.186 14.4668 103.537 14.5215 103.852 14.6309C104.171 14.7402 104.442 14.9111 104.665 15.1436C104.888 15.376 105.059 15.6722 105.178 16.0322C105.301 16.3877 105.362 16.8115 105.362 17.3037V22H104.098V17.3311C104.098 17.0029 104.061 16.7249 103.988 16.4971C103.915 16.2692 103.808 16.0846 103.667 15.9434C103.521 15.8021 103.343 15.6995 103.134 15.6357C102.929 15.5719 102.692 15.54 102.423 15.54C102.19 15.54 101.974 15.5742 101.773 15.6426C101.573 15.7064 101.388 15.7952 101.22 15.9092C101.083 16.0094 100.955 16.1257 100.837 16.2578C100.723 16.39 100.623 16.5358 100.536 16.6953V22H99.2715Z" fill="#333333"/>
</svg>
