<svg width="146" height="34" viewBox="0 0 146 34" fill="none" xmlns="http://www.w3.org/2000/svg">
<rect width="146" height="34" fill="#FFE8E8"/>
<path d="M16.5703 18.0078V22H15.3057V12.0469H18.5322C18.9788 12.056 19.4004 12.1266 19.7969 12.2588C20.1979 12.391 20.5488 12.5824 20.8496 12.833C21.1504 13.0837 21.3874 13.3936 21.5605 13.7627C21.7383 14.1318 21.8271 14.5557 21.8271 15.0342C21.8271 15.5127 21.7383 15.9365 21.5605 16.3057C21.3874 16.6702 21.1504 16.9779 20.8496 17.2285C20.5488 17.4792 20.1979 17.6706 19.7969 17.8027C19.4004 17.9349 18.9788 18.0033 18.5322 18.0078H16.5703ZM16.5703 16.9688H18.5322C18.8239 16.9642 19.0928 16.9186 19.3389 16.832C19.585 16.7409 19.7992 16.6133 19.9814 16.4492C20.1637 16.2852 20.305 16.0869 20.4053 15.8545C20.5101 15.6175 20.5625 15.3486 20.5625 15.0479C20.5625 14.7471 20.5101 14.4759 20.4053 14.2344C20.305 13.9928 20.166 13.7878 19.9883 13.6191C19.806 13.4505 19.5895 13.3206 19.3389 13.2295C19.0928 13.1383 18.8239 13.0905 18.5322 13.0859H16.5703V16.9688ZM28.4443 14.4668C28.6768 14.4668 28.9183 14.4827 29.1689 14.5146C29.4242 14.5465 29.6156 14.5898 29.7432 14.6445L29.5723 15.8818C29.3262 15.8271 29.0915 15.7884 28.8682 15.7656C28.6494 15.7383 28.4193 15.7246 28.1777 15.7246C27.8678 15.7246 27.5876 15.7633 27.3369 15.8408C27.0863 15.9137 26.8675 16.0231 26.6807 16.1689C26.512 16.2965 26.3639 16.4538 26.2363 16.6406C26.1133 16.8229 26.0107 17.028 25.9287 17.2559V22H24.6572V14.6035H25.8604L25.915 15.5947L25.9219 15.7793C26.2227 15.3737 26.5827 15.0547 27.002 14.8223C27.4258 14.5853 27.9066 14.4668 28.4443 14.4668ZM31.6504 18.2334C31.6504 17.7002 31.7279 17.2057 31.8828 16.75C32.0378 16.2897 32.2611 15.891 32.5527 15.5537C32.8398 15.2165 33.1908 14.9521 33.6055 14.7607C34.0202 14.5648 34.4873 14.4668 35.0068 14.4668C35.5309 14.4668 36.0003 14.5648 36.415 14.7607C36.8343 14.9521 37.1898 15.2165 37.4814 15.5537C37.7686 15.891 37.9896 16.2897 38.1445 16.75C38.2995 17.2057 38.377 17.7002 38.377 18.2334V18.3838C38.377 18.917 38.2995 19.4115 38.1445 19.8672C37.9896 20.3229 37.7686 20.7194 37.4814 21.0566C37.1898 21.3939 36.8366 21.6582 36.4219 21.8496C36.0072 22.041 35.54 22.1367 35.0205 22.1367C34.4964 22.1367 34.0247 22.041 33.6055 21.8496C33.1908 21.6582 32.8398 21.3939 32.5527 21.0566C32.2611 20.7194 32.0378 20.3229 31.8828 19.8672C31.7279 19.4115 31.6504 18.917 31.6504 18.3838V18.2334ZM32.915 18.3838C32.915 18.7484 32.9583 19.097 33.0449 19.4297C33.1315 19.7578 33.2637 20.0472 33.4414 20.2979C33.6146 20.5485 33.8333 20.7467 34.0977 20.8926C34.362 21.0384 34.6696 21.1113 35.0205 21.1113C35.3669 21.1113 35.6699 21.0384 35.9297 20.8926C36.194 20.7467 36.415 20.5485 36.5928 20.2979C36.766 20.0472 36.8958 19.7578 36.9824 19.4297C37.069 19.097 37.1123 18.7484 37.1123 18.3838V18.2334C37.1123 17.8734 37.0667 17.5293 36.9756 17.2012C36.889 16.8685 36.7591 16.5768 36.5859 16.3262C36.4082 16.0755 36.1872 15.8773 35.9229 15.7314C35.6631 15.5811 35.3577 15.5059 35.0068 15.5059C34.6559 15.5059 34.3506 15.5811 34.0908 15.7314C33.8311 15.8773 33.6146 16.0755 33.4414 16.3262C33.2637 16.5768 33.1315 16.8685 33.0449 17.2012C32.9583 17.5293 32.915 17.8734 32.915 18.2334V18.3838ZM40.1748 18.2402C40.1748 17.6888 40.2432 17.1829 40.3799 16.7227C40.5212 16.2578 40.7217 15.859 40.9814 15.5264C41.2367 15.1937 41.5465 14.9339 41.9111 14.7471C42.2757 14.5602 42.6836 14.4668 43.1348 14.4668C43.5768 14.4668 43.9619 14.542 44.29 14.6924C44.6227 14.8382 44.9098 15.0524 45.1514 15.335V11.5H46.416V22H45.2539L45.1992 21.2207C44.9531 21.5215 44.6592 21.7493 44.3174 21.9043C43.9756 22.0592 43.5768 22.1367 43.1211 22.1367C42.6745 22.1367 42.2689 22.041 41.9043 21.8496C41.5443 21.6582 41.2367 21.3939 40.9814 21.0566C40.7262 20.7194 40.528 20.3229 40.3867 19.8672C40.2454 19.4069 40.1748 18.9124 40.1748 18.3838V18.2402ZM41.4395 18.3838C41.4395 18.7438 41.4782 19.0856 41.5557 19.4092C41.6331 19.7327 41.7539 20.0176 41.918 20.2637C42.0775 20.5098 42.2826 20.7057 42.5332 20.8516C42.7839 20.9928 43.0846 21.0635 43.4355 21.0635C43.8594 21.0635 44.2103 20.9678 44.4883 20.7764C44.7663 20.585 44.9873 20.3275 45.1514 20.0039V16.5723C44.9873 16.2715 44.7663 16.0254 44.4883 15.834C44.2103 15.638 43.8639 15.54 43.4492 15.54C43.0938 15.54 42.7884 15.613 42.5332 15.7588C42.2826 15.9046 42.0775 16.1006 41.918 16.3467C41.7539 16.5973 41.6331 16.8867 41.5557 17.2148C41.4782 17.5384 41.4395 17.8802 41.4395 18.2402V18.3838ZM53.6963 22L53.6211 20.9814C53.375 21.346 53.0674 21.6309 52.6982 21.8359C52.3291 22.0365 51.903 22.1367 51.4199 22.1367C51.0326 22.1367 50.6816 22.0775 50.3672 21.959C50.0527 21.8359 49.7839 21.6468 49.5605 21.3916C49.3372 21.1364 49.1641 20.8128 49.041 20.4209C48.9225 20.0244 48.8633 19.5505 48.8633 18.999V14.6035H50.1279V19.0127C50.1279 19.4137 50.1598 19.7464 50.2236 20.0107C50.2874 20.2751 50.3831 20.4847 50.5107 20.6396C50.6383 20.7992 50.7933 20.9108 50.9756 20.9746C51.1624 21.0384 51.3766 21.0703 51.6182 21.0703C51.9007 21.0703 52.1536 21.0384 52.377 20.9746C52.6003 20.9062 52.7939 20.8128 52.958 20.6943C53.0947 20.5986 53.2132 20.4847 53.3135 20.3525C53.4183 20.2158 53.5049 20.0677 53.5732 19.9082V14.6035H54.8447V22H53.6963ZM60.3818 21.1113C60.6097 21.1113 60.8307 21.0749 61.0449 21.002C61.2637 20.929 61.4574 20.8265 61.626 20.6943C61.7946 20.5667 61.929 20.4163 62.0293 20.2432C62.1341 20.0654 62.1888 19.874 62.1934 19.6689H63.3896C63.3851 19.9971 63.2985 20.3115 63.1299 20.6123C62.9658 20.9085 62.7448 21.1683 62.4668 21.3916C62.1888 21.6195 61.8698 21.8018 61.5098 21.9385C61.1497 22.0706 60.7738 22.1367 60.3818 22.1367C59.8213 22.1367 59.3314 22.0365 58.9121 21.8359C58.4928 21.6354 58.1442 21.3643 57.8662 21.0225C57.5837 20.6852 57.3717 20.2956 57.2305 19.8535C57.0892 19.4069 57.0186 18.9375 57.0186 18.4453V18.1582C57.0186 17.6706 57.0892 17.2035 57.2305 16.7568C57.3717 16.3102 57.5837 15.916 57.8662 15.5742C58.1442 15.237 58.4928 14.9681 58.9121 14.7676C59.3314 14.5671 59.8213 14.4668 60.3818 14.4668C60.8193 14.4668 61.2204 14.5374 61.585 14.6787C61.9541 14.8154 62.2731 15.0023 62.542 15.2393C62.8063 15.4808 63.0137 15.7656 63.1641 16.0938C63.3145 16.4219 63.3896 16.7728 63.3896 17.1465H62.1934C62.1888 16.9232 62.1387 16.7135 62.043 16.5176C61.9518 16.3171 61.8265 16.1416 61.667 15.9912C61.5075 15.8408 61.3161 15.7223 61.0928 15.6357C60.874 15.5492 60.637 15.5059 60.3818 15.5059C59.9899 15.5059 59.6595 15.5856 59.3906 15.7451C59.1263 15.9001 58.9121 16.1029 58.748 16.3535C58.584 16.6087 58.4655 16.8936 58.3926 17.208C58.3242 17.5225 58.29 17.8392 58.29 18.1582V18.4453C58.29 18.7689 58.3242 19.0902 58.3926 19.4092C58.4655 19.7236 58.584 20.0062 58.748 20.2568C58.9076 20.512 59.1195 20.7194 59.3838 20.8789C59.6527 21.0339 59.9854 21.1113 60.3818 21.1113ZM68.6328 12.8125V14.6035H71.4492V15.5811H68.6328V19.6006C68.6328 19.8877 68.6693 20.1247 68.7422 20.3115C68.8151 20.4984 68.9154 20.6465 69.043 20.7559C69.1706 20.8698 69.3164 20.9495 69.4805 20.9951C69.6491 21.0407 69.8268 21.0635 70.0137 21.0635C70.1504 21.0635 70.2917 21.0566 70.4375 21.043C70.5833 21.0247 70.7269 21.0042 70.8682 20.9814C71.0049 20.9587 71.1325 20.9359 71.251 20.9131C71.374 20.8857 71.4743 20.863 71.5518 20.8447L71.7295 21.7402C71.6247 21.804 71.4971 21.861 71.3467 21.9111C71.1963 21.9567 71.0322 21.9954 70.8545 22.0273C70.6768 22.0638 70.4876 22.0911 70.2871 22.1094C70.0911 22.1276 69.8952 22.1367 69.6992 22.1367C69.3711 22.1367 69.0635 22.0911 68.7764 22C68.4938 21.9043 68.2477 21.7539 68.0381 21.5488C67.8285 21.3483 67.6621 21.0885 67.5391 20.7695C67.4206 20.446 67.3613 20.0563 67.3613 19.6006V15.5811H65.4199V14.6035H67.3613V12.8125H68.6328ZM82.2158 18.2402C82.2158 17.6888 82.2842 17.1829 82.4209 16.7227C82.5622 16.2578 82.7627 15.859 83.0225 15.5264C83.2777 15.1937 83.5876 14.9339 83.9521 14.7471C84.3167 14.5602 84.7246 14.4668 85.1758 14.4668C85.6178 14.4668 86.0029 14.542 86.3311 14.6924C86.6637 14.8382 86.9508 15.0524 87.1924 15.335V11.5H88.457V22H87.2949L87.2402 21.2207C86.9941 21.5215 86.7002 21.7493 86.3584 21.9043C86.0166 22.0592 85.6178 22.1367 85.1621 22.1367C84.7155 22.1367 84.3099 22.041 83.9453 21.8496C83.5853 21.6582 83.2777 21.3939 83.0225 21.0566C82.7673 20.7194 82.569 20.3229 82.4277 19.8672C82.2865 19.4069 82.2158 18.9124 82.2158 18.3838V18.2402ZM83.4805 18.3838C83.4805 18.7438 83.5192 19.0856 83.5967 19.4092C83.6742 19.7327 83.7949 20.0176 83.959 20.2637C84.1185 20.5098 84.3236 20.7057 84.5742 20.8516C84.8249 20.9928 85.1257 21.0635 85.4766 21.0635C85.9004 21.0635 86.2513 20.9678 86.5293 20.7764C86.8073 20.585 87.0283 20.3275 87.1924 20.0039V16.5723C87.0283 16.2715 86.8073 16.0254 86.5293 15.834C86.2513 15.638 85.9049 15.54 85.4902 15.54C85.1348 15.54 84.8294 15.613 84.5742 15.7588C84.3236 15.9046 84.1185 16.1006 83.959 16.3467C83.7949 16.5973 83.6742 16.8867 83.5967 17.2148C83.5192 17.5384 83.4805 17.8802 83.4805 18.2402V18.3838ZM94.1309 22.1367C93.6113 22.1367 93.1328 22.0479 92.6953 21.8701C92.2624 21.6924 91.891 21.444 91.5811 21.125C91.2712 20.806 91.0296 20.4277 90.8564 19.9902C90.6833 19.5527 90.5967 19.0765 90.5967 18.5615V18.2744C90.5967 17.6774 90.6924 17.1442 90.8838 16.6748C91.0752 16.2008 91.3304 15.7998 91.6494 15.4717C91.9639 15.1481 92.3216 14.8997 92.7227 14.7266C93.1283 14.5534 93.543 14.4668 93.9668 14.4668C94.5 14.4668 94.9648 14.5602 95.3613 14.7471C95.7624 14.9294 96.0951 15.1823 96.3594 15.5059C96.6237 15.834 96.8197 16.2191 96.9473 16.6611C97.0794 17.1032 97.1455 17.5817 97.1455 18.0967V18.6641H91.8613V18.7119C91.8932 19.0719 91.9639 19.3887 92.0732 19.6621C92.1872 19.9355 92.3421 20.1771 92.5381 20.3867C92.7386 20.61 92.9801 20.7855 93.2627 20.9131C93.5452 21.0407 93.8574 21.1045 94.1992 21.1045C94.6504 21.1045 95.0514 21.0133 95.4023 20.8311C95.7533 20.6488 96.0449 20.4072 96.2773 20.1064L97.0498 20.708C96.8037 21.0817 96.4346 21.4144 95.9424 21.7061C95.4548 21.9932 94.8509 22.1367 94.1309 22.1367ZM93.9668 15.5059C93.7116 15.5059 93.4701 15.5537 93.2422 15.6494C93.0143 15.7406 92.8092 15.875 92.627 16.0527C92.4447 16.235 92.2897 16.4583 92.1621 16.7227C92.0391 16.9824 91.9525 17.2832 91.9023 17.625H95.8809V17.5635C95.8809 17.3356 95.8376 17.0918 95.751 16.832C95.6644 16.5677 95.5436 16.3398 95.3887 16.1484C95.2337 15.957 95.0378 15.8021 94.8008 15.6836C94.5684 15.5651 94.2904 15.5059 93.9668 15.5059ZM104.187 20.0381C104.187 19.8877 104.157 19.7533 104.098 19.6348C104.038 19.5117 103.938 19.4001 103.797 19.2998C103.656 19.1995 103.469 19.1084 103.236 19.0264C103.004 18.9398 102.715 18.8623 102.368 18.7939C101.944 18.7074 101.557 18.6025 101.206 18.4795C100.86 18.3564 100.563 18.2083 100.317 18.0352C100.067 17.8665 99.873 17.6683 99.7363 17.4404C99.5996 17.208 99.5312 16.9391 99.5312 16.6338C99.5312 16.333 99.6019 16.0527 99.7432 15.793C99.8844 15.5286 100.083 15.2985 100.338 15.1025C100.593 14.9066 100.896 14.7516 101.247 14.6377C101.603 14.5238 101.992 14.4668 102.416 14.4668C102.872 14.4668 103.282 14.526 103.646 14.6445C104.011 14.763 104.321 14.9271 104.576 15.1367C104.831 15.3464 105.027 15.5924 105.164 15.875C105.305 16.153 105.376 16.4538 105.376 16.7773H104.111C104.111 16.6178 104.07 16.4629 103.988 16.3125C103.906 16.1576 103.792 16.0208 103.646 15.9023C103.501 15.7839 103.323 15.6882 103.113 15.6152C102.908 15.5423 102.676 15.5059 102.416 15.5059C102.147 15.5059 101.91 15.5355 101.705 15.5947C101.505 15.654 101.338 15.7337 101.206 15.834C101.069 15.9342 100.967 16.0505 100.898 16.1826C100.83 16.3148 100.796 16.4515 100.796 16.5928C100.796 16.7386 100.823 16.8685 100.878 16.9824C100.933 17.0964 101.028 17.1989 101.165 17.29C101.297 17.3812 101.475 17.4632 101.698 17.5361C101.926 17.609 102.213 17.6797 102.56 17.748C103.015 17.8438 103.423 17.9554 103.783 18.083C104.143 18.2061 104.446 18.3542 104.692 18.5273C104.938 18.7051 105.125 18.9102 105.253 19.1426C105.385 19.375 105.451 19.6439 105.451 19.9492C105.451 20.2773 105.376 20.5758 105.226 20.8447C105.08 21.1136 104.875 21.3438 104.61 21.5352C104.346 21.7266 104.029 21.8747 103.66 21.9795C103.291 22.0843 102.888 22.1367 102.45 22.1367C101.949 22.1367 101.502 22.0706 101.11 21.9385C100.718 21.8018 100.388 21.6217 100.119 21.3984C99.8457 21.1797 99.6361 20.9245 99.4902 20.6328C99.349 20.3411 99.2783 20.0381 99.2783 19.7236H100.543C100.561 19.9834 100.63 20.2021 100.748 20.3799C100.871 20.5576 101.024 20.7012 101.206 20.8105C101.384 20.9199 101.582 20.9974 101.801 21.043C102.02 21.0885 102.236 21.1113 102.45 21.1113C102.787 21.1113 103.081 21.0726 103.332 20.9951C103.583 20.9131 103.779 20.8014 103.92 20.6602C104.007 20.5736 104.073 20.4779 104.118 20.373C104.164 20.2682 104.187 20.1566 104.187 20.0381ZM107.878 14.6035H111.658V20.9062H114.071V22H107.878V20.9062H110.394V15.7041H107.878V14.6035ZM110.229 12.6621C110.229 12.5527 110.245 12.4502 110.277 12.3545C110.314 12.2588 110.368 12.1768 110.441 12.1084C110.501 12.0492 110.576 12.0036 110.667 11.9717C110.763 11.9352 110.87 11.917 110.988 11.917C111.107 11.917 111.212 11.9352 111.303 11.9717C111.394 12.0036 111.469 12.0492 111.528 12.1084C111.601 12.1722 111.656 12.252 111.692 12.3477C111.729 12.4434 111.747 12.5482 111.747 12.6621C111.747 12.8672 111.683 13.0381 111.556 13.1748C111.428 13.3115 111.239 13.3799 110.988 13.3799C110.733 13.3799 110.542 13.3115 110.414 13.1748C110.291 13.0381 110.229 12.8672 110.229 12.6621ZM115.855 18.2402C115.855 17.6888 115.922 17.1829 116.054 16.7227C116.19 16.2578 116.386 15.859 116.642 15.5264C116.897 15.1937 117.207 14.9339 117.571 14.7471C117.936 14.5602 118.348 14.4668 118.809 14.4668C119.105 14.4668 119.376 14.501 119.622 14.5693C119.873 14.6377 120.098 14.738 120.299 14.8701C120.408 14.9385 120.511 15.0182 120.606 15.1094C120.707 15.2005 120.8 15.3008 120.887 15.4102L120.948 14.6035H122.097V21.8428C122.097 22.3304 122.019 22.7633 121.864 23.1416C121.714 23.5199 121.502 23.8411 121.229 24.1055C120.951 24.3698 120.62 24.5703 120.237 24.707C119.854 24.8438 119.431 24.9121 118.966 24.9121C118.774 24.9121 118.556 24.8893 118.31 24.8438C118.063 24.8027 117.815 24.7321 117.564 24.6318C117.309 24.5361 117.063 24.4062 116.826 24.2422C116.594 24.0781 116.393 23.8753 116.225 23.6338L116.881 22.875C117.036 23.0618 117.195 23.2191 117.359 23.3467C117.523 23.4788 117.69 23.5837 117.858 23.6611C118.027 23.7386 118.196 23.7933 118.364 23.8252C118.533 23.8617 118.701 23.8799 118.87 23.8799C119.171 23.8799 119.442 23.8366 119.684 23.75C119.925 23.6634 120.132 23.5358 120.306 23.3672C120.474 23.2031 120.604 22.998 120.695 22.752C120.786 22.5059 120.832 22.2233 120.832 21.9043V21.2686C120.736 21.3779 120.634 21.4782 120.524 21.5693C120.42 21.6605 120.306 21.7402 120.183 21.8086C119.991 21.9134 119.779 21.9932 119.547 22.0479C119.314 22.1071 119.064 22.1367 118.795 22.1367C118.344 22.1367 117.936 22.041 117.571 21.8496C117.207 21.6582 116.899 21.3939 116.648 21.0566C116.393 20.7194 116.197 20.3229 116.061 19.8672C115.924 19.4069 115.855 18.9124 115.855 18.3838V18.2402ZM117.12 18.3838C117.12 18.7438 117.157 19.0856 117.229 19.4092C117.307 19.7327 117.428 20.0176 117.592 20.2637C117.751 20.5098 117.956 20.7057 118.207 20.8516C118.458 20.9928 118.758 21.0635 119.109 21.0635C119.328 21.0635 119.524 21.0384 119.697 20.9883C119.875 20.9336 120.035 20.8584 120.176 20.7627C120.312 20.667 120.436 20.5531 120.545 20.4209C120.654 20.2887 120.75 20.1429 120.832 19.9834V16.5928C120.75 16.4378 120.654 16.2965 120.545 16.1689C120.436 16.0413 120.31 15.9297 120.169 15.834C120.028 15.7428 119.87 15.6722 119.697 15.6221C119.524 15.5674 119.333 15.54 119.123 15.54C118.768 15.54 118.462 15.613 118.207 15.7588C117.956 15.9046 117.751 16.1006 117.592 16.3467C117.428 16.5973 117.307 16.8867 117.229 17.2148C117.157 17.5384 117.12 17.8802 117.12 18.2402V18.3838ZM124.496 22V14.6035H125.631L125.72 15.6973C125.829 15.5423 125.948 15.401 126.075 15.2734C126.207 15.1413 126.346 15.0273 126.492 14.9316C126.711 14.7858 126.948 14.6742 127.203 14.5967C127.463 14.5146 127.736 14.4714 128.023 14.4668C128.411 14.4668 128.762 14.5215 129.076 14.6309C129.395 14.7402 129.666 14.9111 129.89 15.1436C130.113 15.376 130.284 15.6722 130.402 16.0322C130.525 16.3877 130.587 16.8115 130.587 17.3037V22H129.322V17.3311C129.322 17.0029 129.286 16.7249 129.213 16.4971C129.14 16.2692 129.033 16.0846 128.892 15.9434C128.746 15.8021 128.568 15.6995 128.358 15.6357C128.153 15.5719 127.916 15.54 127.647 15.54C127.415 15.54 127.199 15.5742 126.998 15.6426C126.798 15.7064 126.613 15.7952 126.444 15.9092C126.308 16.0094 126.18 16.1257 126.062 16.2578C125.948 16.39 125.847 16.5358 125.761 16.6953V22H124.496Z" fill="#333333"/>
</svg>
