<svg width="129" height="34" viewBox="0 0 129 34" fill="none" xmlns="http://www.w3.org/2000/svg">
<rect width="129" height="34" fill="#F6ECFF"/>
<path d="M16.6182 20.9268H21.4854V22H15.3535V12.0469H16.6182V20.9268ZM28.458 22C28.4079 21.9043 28.3669 21.7858 28.335 21.6445C28.3076 21.4987 28.2871 21.3483 28.2734 21.1934C28.1458 21.321 28.0023 21.4417 27.8428 21.5557C27.6878 21.6696 27.5169 21.7699 27.3301 21.8564C27.1387 21.943 26.9359 22.0114 26.7217 22.0615C26.5075 22.1117 26.2796 22.1367 26.0381 22.1367C25.6462 22.1367 25.2907 22.0798 24.9717 21.9658C24.6572 21.8519 24.3906 21.6969 24.1719 21.501C23.9486 21.3096 23.7754 21.0817 23.6523 20.8174C23.5339 20.5485 23.4746 20.2591 23.4746 19.9492C23.4746 19.5436 23.5544 19.1882 23.7139 18.8828C23.8779 18.5775 24.1081 18.3223 24.4043 18.1172C24.7005 17.9167 25.056 17.7663 25.4707 17.666C25.89 17.5658 26.3571 17.5156 26.8721 17.5156H28.2529V16.9346C28.2529 16.7113 28.2119 16.5107 28.1299 16.333C28.0479 16.1553 27.9316 16.0026 27.7812 15.875C27.6309 15.752 27.4463 15.6562 27.2275 15.5879C27.0133 15.5195 26.7718 15.4854 26.5029 15.4854C26.2523 15.4854 26.0267 15.5173 25.8262 15.5811C25.6302 15.6449 25.4639 15.7292 25.3271 15.834C25.1904 15.9388 25.0833 16.0641 25.0059 16.21C24.9329 16.3512 24.8965 16.4993 24.8965 16.6543H23.625C23.6296 16.3854 23.6979 16.1211 23.8301 15.8613C23.9668 15.6016 24.1628 15.3669 24.418 15.1572C24.6686 14.9521 24.974 14.7858 25.334 14.6582C25.6986 14.5306 26.111 14.4668 26.5713 14.4668C26.9906 14.4668 27.3802 14.5192 27.7402 14.624C28.1003 14.7243 28.4124 14.877 28.6768 15.082C28.9365 15.2917 29.1416 15.5514 29.292 15.8613C29.4424 16.1712 29.5176 16.5335 29.5176 16.9482V20.3867C29.5176 20.6328 29.5404 20.8949 29.5859 21.1729C29.6315 21.4463 29.6953 21.6855 29.7773 21.8906V22H28.458ZM26.2227 21.0361C26.4688 21.0361 26.6989 21.0042 26.9131 20.9404C27.1273 20.8766 27.3232 20.7923 27.501 20.6875C27.6742 20.5827 27.8245 20.4642 27.9521 20.332C28.0798 20.1953 28.18 20.054 28.2529 19.9082V18.4111H27.0771C26.6396 18.4111 26.2568 18.4499 25.9287 18.5273C25.6051 18.6003 25.3477 18.7142 25.1562 18.8691C25.0195 18.9785 24.9147 19.1084 24.8418 19.2588C24.7734 19.4092 24.7393 19.5801 24.7393 19.7715C24.7393 19.9538 24.7689 20.1224 24.8281 20.2773C24.8919 20.4323 24.9854 20.5645 25.1084 20.6738C25.2314 20.7878 25.3864 20.8766 25.5732 20.9404C25.7601 21.0042 25.9766 21.0361 26.2227 21.0361ZM32.0059 22V14.6035H33.1406L33.2295 15.6973C33.3389 15.5423 33.4574 15.401 33.585 15.2734C33.7171 15.1413 33.8561 15.0273 34.002 14.9316C34.2207 14.7858 34.4577 14.6742 34.7129 14.5967C34.9727 14.5146 35.2461 14.4714 35.5332 14.4668C35.9206 14.4668 36.2715 14.5215 36.5859 14.6309C36.9049 14.7402 37.1761 14.9111 37.3994 15.1436C37.6227 15.376 37.7936 15.6722 37.9121 16.0322C38.0352 16.3877 38.0967 16.8115 38.0967 17.3037V22H36.832V17.3311C36.832 17.0029 36.7956 16.7249 36.7227 16.4971C36.6497 16.2692 36.5426 16.0846 36.4014 15.9434C36.2555 15.8021 36.0778 15.6995 35.8682 15.6357C35.6631 15.5719 35.4261 15.54 35.1572 15.54C34.9248 15.54 34.7083 15.5742 34.5078 15.6426C34.3073 15.7064 34.1227 15.7952 33.9541 15.9092C33.8174 16.0094 33.6898 16.1257 33.5713 16.2578C33.4574 16.39 33.3571 16.5358 33.2705 16.6953V22H32.0059ZM40.1748 18.2402C40.1748 17.6888 40.2432 17.1829 40.3799 16.7227C40.5212 16.2578 40.7217 15.859 40.9814 15.5264C41.2367 15.1937 41.5465 14.9339 41.9111 14.7471C42.2757 14.5602 42.6836 14.4668 43.1348 14.4668C43.5768 14.4668 43.9619 14.542 44.29 14.6924C44.6227 14.8382 44.9098 15.0524 45.1514 15.335V11.5H46.416V22H45.2539L45.1992 21.2207C44.9531 21.5215 44.6592 21.7493 44.3174 21.9043C43.9756 22.0592 43.5768 22.1367 43.1211 22.1367C42.6745 22.1367 42.2689 22.041 41.9043 21.8496C41.5443 21.6582 41.2367 21.3939 40.9814 21.0566C40.7262 20.7194 40.528 20.3229 40.3867 19.8672C40.2454 19.4069 40.1748 18.9124 40.1748 18.3838V18.2402ZM41.4395 18.3838C41.4395 18.7438 41.4782 19.0856 41.5557 19.4092C41.6331 19.7327 41.7539 20.0176 41.918 20.2637C42.0775 20.5098 42.2826 20.7057 42.5332 20.8516C42.7839 20.9928 43.0846 21.0635 43.4355 21.0635C43.8594 21.0635 44.2103 20.9678 44.4883 20.7764C44.7663 20.585 44.9873 20.3275 45.1514 20.0039V16.5723C44.9873 16.2715 44.7663 16.0254 44.4883 15.834C44.2103 15.638 43.8639 15.54 43.4492 15.54C43.0938 15.54 42.7884 15.613 42.5332 15.7588C42.2826 15.9046 42.0775 16.1006 41.918 16.3467C41.7539 16.5973 41.6331 16.8867 41.5557 17.2148C41.4782 17.5384 41.4395 17.8802 41.4395 18.2402V18.3838ZM49.0205 14.6035H52.8008V20.9062H55.2139V22H49.0205V20.9062H51.5361V15.7041H49.0205V14.6035ZM51.3721 12.6621C51.3721 12.5527 51.388 12.4502 51.4199 12.3545C51.4564 12.2588 51.5111 12.1768 51.584 12.1084C51.6432 12.0492 51.7184 12.0036 51.8096 11.9717C51.9053 11.9352 52.0124 11.917 52.1309 11.917C52.2493 11.917 52.3542 11.9352 52.4453 11.9717C52.5365 12.0036 52.6117 12.0492 52.6709 12.1084C52.7438 12.1722 52.7985 12.252 52.835 12.3477C52.8714 12.4434 52.8896 12.5482 52.8896 12.6621C52.8896 12.8672 52.8258 13.0381 52.6982 13.1748C52.5706 13.3115 52.3815 13.3799 52.1309 13.3799C51.8757 13.3799 51.6842 13.3115 51.5566 13.1748C51.4336 13.0381 51.3721 12.8672 51.3721 12.6621ZM57.2305 22V14.6035H58.3652L58.4541 15.6973C58.5635 15.5423 58.682 15.401 58.8096 15.2734C58.9417 15.1413 59.0807 15.0273 59.2266 14.9316C59.4453 14.7858 59.6823 14.6742 59.9375 14.5967C60.1973 14.5146 60.4707 14.4714 60.7578 14.4668C61.1452 14.4668 61.4961 14.5215 61.8105 14.6309C62.1296 14.7402 62.4007 14.9111 62.624 15.1436C62.8473 15.376 63.0182 15.6722 63.1367 16.0322C63.2598 16.3877 63.3213 16.8115 63.3213 17.3037V22H62.0566V17.3311C62.0566 17.0029 62.0202 16.7249 61.9473 16.4971C61.8743 16.2692 61.7673 16.0846 61.626 15.9434C61.4801 15.8021 61.3024 15.6995 61.0928 15.6357C60.8877 15.5719 60.6507 15.54 60.3818 15.54C60.1494 15.54 59.9329 15.5742 59.7324 15.6426C59.5319 15.7064 59.3473 15.7952 59.1787 15.9092C59.042 16.0094 58.9144 16.1257 58.7959 16.2578C58.682 16.39 58.5817 16.5358 58.4951 16.6953V22H57.2305ZM65.4062 18.2402C65.4062 17.6888 65.4723 17.1829 65.6045 16.7227C65.7412 16.2578 65.9372 15.859 66.1924 15.5264C66.4476 15.1937 66.7575 14.9339 67.1221 14.7471C67.4867 14.5602 67.8991 14.4668 68.3594 14.4668C68.6556 14.4668 68.9268 14.501 69.1729 14.5693C69.4235 14.6377 69.6491 14.738 69.8496 14.8701C69.959 14.9385 70.0615 15.0182 70.1572 15.1094C70.2575 15.2005 70.3509 15.3008 70.4375 15.4102L70.499 14.6035H71.6475V21.8428C71.6475 22.3304 71.57 22.7633 71.415 23.1416C71.2646 23.5199 71.0527 23.8411 70.7793 24.1055C70.5013 24.3698 70.1709 24.5703 69.7881 24.707C69.4053 24.8438 68.9814 24.9121 68.5166 24.9121C68.3252 24.9121 68.1064 24.8893 67.8604 24.8438C67.6143 24.8027 67.3659 24.7321 67.1152 24.6318C66.86 24.5361 66.6139 24.4062 66.377 24.2422C66.1445 24.0781 65.944 23.8753 65.7754 23.6338L66.4316 22.875C66.5866 23.0618 66.7461 23.2191 66.9102 23.3467C67.0742 23.4788 67.2406 23.5837 67.4092 23.6611C67.5778 23.7386 67.7464 23.7933 67.915 23.8252C68.0837 23.8617 68.2523 23.8799 68.4209 23.8799C68.7217 23.8799 68.9928 23.8366 69.2344 23.75C69.4759 23.6634 69.6833 23.5358 69.8564 23.3672C70.0251 23.2031 70.1549 22.998 70.2461 22.752C70.3372 22.5059 70.3828 22.2233 70.3828 21.9043V21.2686C70.2871 21.3779 70.1846 21.4782 70.0752 21.5693C69.9704 21.6605 69.8564 21.7402 69.7334 21.8086C69.542 21.9134 69.3301 21.9932 69.0977 22.0479C68.8652 22.1071 68.6146 22.1367 68.3457 22.1367C67.8945 22.1367 67.4867 22.041 67.1221 21.8496C66.7575 21.6582 66.4499 21.3939 66.1992 21.0566C65.944 20.7194 65.748 20.3229 65.6113 19.8672C65.4746 19.4069 65.4062 18.9124 65.4062 18.3838V18.2402ZM66.6709 18.3838C66.6709 18.7438 66.7074 19.0856 66.7803 19.4092C66.8577 19.7327 66.9785 20.0176 67.1426 20.2637C67.3021 20.5098 67.5072 20.7057 67.7578 20.8516C68.0085 20.9928 68.3092 21.0635 68.6602 21.0635C68.8789 21.0635 69.0749 21.0384 69.248 20.9883C69.4258 20.9336 69.5853 20.8584 69.7266 20.7627C69.8633 20.667 69.9863 20.5531 70.0957 20.4209C70.2051 20.2887 70.3008 20.1429 70.3828 19.9834V16.5928C70.3008 16.4378 70.2051 16.2965 70.0957 16.1689C69.9863 16.0413 69.861 15.9297 69.7197 15.834C69.5785 15.7428 69.4212 15.6722 69.248 15.6221C69.0749 15.5674 68.8835 15.54 68.6738 15.54C68.3184 15.54 68.013 15.613 67.7578 15.7588C67.5072 15.9046 67.3021 16.1006 67.1426 16.3467C66.9785 16.5973 66.8577 16.8867 66.7803 17.2148C66.7074 17.5384 66.6709 17.8802 66.6709 18.2402V18.3838ZM82.4482 24.8438V14.6035H83.6035L83.665 15.4102C83.7653 15.2826 83.8747 15.1686 83.9932 15.0684C84.1117 14.9635 84.2393 14.8747 84.376 14.8018C84.5674 14.6924 84.7793 14.6104 85.0117 14.5557C85.2487 14.4964 85.5016 14.4668 85.7705 14.4668C86.2445 14.4668 86.6637 14.5602 87.0283 14.7471C87.3929 14.9339 87.6982 15.1937 87.9443 15.5264C88.1904 15.859 88.3773 16.2578 88.5049 16.7227C88.6325 17.1829 88.6963 17.6888 88.6963 18.2402V18.3838C88.6963 18.9124 88.6325 19.4069 88.5049 19.8672C88.3773 20.3229 88.1904 20.7194 87.9443 21.0566C87.6982 21.3939 87.3929 21.6582 87.0283 21.8496C86.6683 22.041 86.2559 22.1367 85.791 22.1367C85.5085 22.1367 85.2441 22.1071 84.998 22.0479C84.7565 21.9886 84.5378 21.9043 84.3418 21.7949C84.2233 21.7266 84.1117 21.6514 84.0068 21.5693C83.902 21.4827 83.804 21.3893 83.7129 21.2891V24.8438H82.4482ZM87.4316 18.2402C87.4316 17.8802 87.3906 17.5384 87.3086 17.2148C87.2311 16.8867 87.1104 16.5973 86.9463 16.3467C86.7777 16.1006 86.5658 15.9046 86.3105 15.7588C86.0553 15.613 85.75 15.54 85.3945 15.54C85.1986 15.54 85.0163 15.5628 84.8477 15.6084C84.6836 15.654 84.5355 15.7201 84.4033 15.8066C84.2575 15.8932 84.1276 16.0003 84.0137 16.1279C83.8997 16.2555 83.7995 16.3968 83.7129 16.5518V20.1133C83.7904 20.25 83.8792 20.3776 83.9795 20.4961C84.0798 20.6146 84.1937 20.7148 84.3213 20.7969C84.4671 20.8926 84.6289 20.9678 84.8066 21.0225C84.9889 21.0771 85.1895 21.1045 85.4082 21.1045C85.7591 21.1045 86.0622 21.0316 86.3174 20.8857C86.5726 20.7354 86.7822 20.5348 86.9463 20.2842C87.1104 20.0335 87.2311 19.7441 87.3086 19.416C87.3906 19.0879 87.4316 18.7438 87.4316 18.3838V18.2402ZM95.7236 22C95.6735 21.9043 95.6325 21.7858 95.6006 21.6445C95.5732 21.4987 95.5527 21.3483 95.5391 21.1934C95.4115 21.321 95.2679 21.4417 95.1084 21.5557C94.9535 21.6696 94.7826 21.7699 94.5957 21.8564C94.4043 21.943 94.2015 22.0114 93.9873 22.0615C93.7731 22.1117 93.5452 22.1367 93.3037 22.1367C92.9118 22.1367 92.5563 22.0798 92.2373 21.9658C91.9229 21.8519 91.6562 21.6969 91.4375 21.501C91.2142 21.3096 91.041 21.0817 90.918 20.8174C90.7995 20.5485 90.7402 20.2591 90.7402 19.9492C90.7402 19.5436 90.82 19.1882 90.9795 18.8828C91.1436 18.5775 91.3737 18.3223 91.6699 18.1172C91.9661 17.9167 92.3216 17.7663 92.7363 17.666C93.1556 17.5658 93.6227 17.5156 94.1377 17.5156H95.5186V16.9346C95.5186 16.7113 95.4775 16.5107 95.3955 16.333C95.3135 16.1553 95.1973 16.0026 95.0469 15.875C94.8965 15.752 94.7119 15.6562 94.4932 15.5879C94.279 15.5195 94.0374 15.4854 93.7686 15.4854C93.5179 15.4854 93.2923 15.5173 93.0918 15.5811C92.8958 15.6449 92.7295 15.7292 92.5928 15.834C92.4561 15.9388 92.349 16.0641 92.2715 16.21C92.1986 16.3512 92.1621 16.4993 92.1621 16.6543H90.8906C90.8952 16.3854 90.9635 16.1211 91.0957 15.8613C91.2324 15.6016 91.4284 15.3669 91.6836 15.1572C91.9342 14.9521 92.2396 14.7858 92.5996 14.6582C92.9642 14.5306 93.3766 14.4668 93.8369 14.4668C94.2562 14.4668 94.6458 14.5192 95.0059 14.624C95.3659 14.7243 95.6781 14.877 95.9424 15.082C96.2021 15.2917 96.4072 15.5514 96.5576 15.8613C96.708 16.1712 96.7832 16.5335 96.7832 16.9482V20.3867C96.7832 20.6328 96.806 20.8949 96.8516 21.1729C96.8971 21.4463 96.9609 21.6855 97.043 21.8906V22H95.7236ZM93.4883 21.0361C93.7344 21.0361 93.9645 21.0042 94.1787 20.9404C94.3929 20.8766 94.5889 20.7923 94.7666 20.6875C94.9398 20.5827 95.0902 20.4642 95.2178 20.332C95.3454 20.1953 95.4456 20.054 95.5186 19.9082V18.4111H94.3428C93.9053 18.4111 93.5225 18.4499 93.1943 18.5273C92.8708 18.6003 92.6133 18.7142 92.4219 18.8691C92.2852 18.9785 92.1803 19.1084 92.1074 19.2588C92.0391 19.4092 92.0049 19.5801 92.0049 19.7715C92.0049 19.9538 92.0345 20.1224 92.0938 20.2773C92.1576 20.4323 92.251 20.5645 92.374 20.6738C92.4971 20.7878 92.652 20.8766 92.8389 20.9404C93.0257 21.0042 93.2422 21.0361 93.4883 21.0361ZM99.0391 18.2402C99.0391 17.6888 99.1051 17.1829 99.2373 16.7227C99.374 16.2578 99.57 15.859 99.8252 15.5264C100.08 15.1937 100.39 14.9339 100.755 14.7471C101.119 14.5602 101.532 14.4668 101.992 14.4668C102.288 14.4668 102.56 14.501 102.806 14.5693C103.056 14.6377 103.282 14.738 103.482 14.8701C103.592 14.9385 103.694 15.0182 103.79 15.1094C103.89 15.2005 103.984 15.3008 104.07 15.4102L104.132 14.6035H105.28V21.8428C105.28 22.3304 105.203 22.7633 105.048 23.1416C104.897 23.5199 104.686 23.8411 104.412 24.1055C104.134 24.3698 103.804 24.5703 103.421 24.707C103.038 24.8438 102.614 24.9121 102.149 24.9121C101.958 24.9121 101.739 24.8893 101.493 24.8438C101.247 24.8027 100.999 24.7321 100.748 24.6318C100.493 24.5361 100.247 24.4062 100.01 24.2422C99.7773 24.0781 99.5768 23.8753 99.4082 23.6338L100.064 22.875C100.219 23.0618 100.379 23.2191 100.543 23.3467C100.707 23.4788 100.873 23.5837 101.042 23.6611C101.211 23.7386 101.379 23.7933 101.548 23.8252C101.716 23.8617 101.885 23.8799 102.054 23.8799C102.354 23.8799 102.626 23.8366 102.867 23.75C103.109 23.6634 103.316 23.5358 103.489 23.3672C103.658 23.2031 103.788 22.998 103.879 22.752C103.97 22.5059 104.016 22.2233 104.016 21.9043V21.2686C103.92 21.3779 103.817 21.4782 103.708 21.5693C103.603 21.6605 103.489 21.7402 103.366 21.8086C103.175 21.9134 102.963 21.9932 102.73 22.0479C102.498 22.1071 102.247 22.1367 101.979 22.1367C101.527 22.1367 101.119 22.041 100.755 21.8496C100.39 21.6582 100.083 21.3939 99.832 21.0566C99.5768 20.7194 99.3809 20.3229 99.2441 19.8672C99.1074 19.4069 99.0391 18.9124 99.0391 18.3838V18.2402ZM100.304 18.3838C100.304 18.7438 100.34 19.0856 100.413 19.4092C100.491 19.7327 100.611 20.0176 100.775 20.2637C100.935 20.5098 101.14 20.7057 101.391 20.8516C101.641 20.9928 101.942 21.0635 102.293 21.0635C102.512 21.0635 102.708 21.0384 102.881 20.9883C103.059 20.9336 103.218 20.8584 103.359 20.7627C103.496 20.667 103.619 20.5531 103.729 20.4209C103.838 20.2887 103.934 20.1429 104.016 19.9834V16.5928C103.934 16.4378 103.838 16.2965 103.729 16.1689C103.619 16.0413 103.494 15.9297 103.353 15.834C103.211 15.7428 103.054 15.6722 102.881 15.6221C102.708 15.5674 102.516 15.54 102.307 15.54C101.951 15.54 101.646 15.613 101.391 15.7588C101.14 15.9046 100.935 16.1006 100.775 16.3467C100.611 16.5973 100.491 16.8867 100.413 17.2148C100.34 17.5384 100.304 17.8802 100.304 18.2402V18.3838ZM110.947 22.1367C110.428 22.1367 109.949 22.0479 109.512 21.8701C109.079 21.6924 108.707 21.444 108.397 21.125C108.088 20.806 107.846 20.4277 107.673 19.9902C107.5 19.5527 107.413 19.0765 107.413 18.5615V18.2744C107.413 17.6774 107.509 17.1442 107.7 16.6748C107.892 16.2008 108.147 15.7998 108.466 15.4717C108.78 15.1481 109.138 14.8997 109.539 14.7266C109.945 14.5534 110.359 14.4668 110.783 14.4668C111.316 14.4668 111.781 14.5602 112.178 14.7471C112.579 14.9294 112.911 15.1823 113.176 15.5059C113.44 15.834 113.636 16.2191 113.764 16.6611C113.896 17.1032 113.962 17.5817 113.962 18.0967V18.6641H108.678V18.7119C108.71 19.0719 108.78 19.3887 108.89 19.6621C109.004 19.9355 109.159 20.1771 109.354 20.3867C109.555 20.61 109.797 20.7855 110.079 20.9131C110.362 21.0407 110.674 21.1045 111.016 21.1045C111.467 21.1045 111.868 21.0133 112.219 20.8311C112.57 20.6488 112.861 20.4072 113.094 20.1064L113.866 20.708C113.62 21.0817 113.251 21.4144 112.759 21.7061C112.271 21.9932 111.667 22.1367 110.947 22.1367ZM110.783 15.5059C110.528 15.5059 110.286 15.5537 110.059 15.6494C109.831 15.7406 109.626 15.875 109.443 16.0527C109.261 16.235 109.106 16.4583 108.979 16.7227C108.855 16.9824 108.769 17.2832 108.719 17.625H112.697V17.5635C112.697 17.3356 112.654 17.0918 112.567 16.832C112.481 16.5677 112.36 16.3398 112.205 16.1484C112.05 15.957 111.854 15.8021 111.617 15.6836C111.385 15.5651 111.107 15.5059 110.783 15.5059Z" fill="#333333"/>
</svg>
