<svg width="207" height="48" viewBox="0 0 207 48" fill="none" xmlns="http://www.w3.org/2000/svg">
<rect x="0.5" y="0.5" width="206" height="47" rx="11.5" stroke="#EEEEEE"/>
<path d="M32.4648 28L31.4277 19.4688H32.459L33.0742 25.3516L33.1094 25.6914L33.1738 25.3398L34.2051 19.4688H35.1484L36.1855 25.3457L36.25 25.6914L36.2852 25.3398L36.9004 19.4688H37.9258L36.8887 28H35.7812L34.7441 21.9297L34.6855 21.5723L34.6211 21.9355L33.5781 28H32.4648ZM38.9219 24.7715C38.9219 24.3145 38.9883 23.8906 39.1211 23.5C39.2539 23.1055 39.4453 22.7637 39.6953 22.4746C39.9414 22.1855 40.2422 21.959 40.5977 21.7949C40.9531 21.627 41.3535 21.543 41.7988 21.543C42.248 21.543 42.6504 21.627 43.0059 21.7949C43.3652 21.959 43.6699 22.1855 43.9199 22.4746C44.166 22.7637 44.3555 23.1055 44.4883 23.5C44.6211 23.8906 44.6875 24.3145 44.6875 24.7715V24.9004C44.6875 25.3574 44.6211 25.7812 44.4883 26.1719C44.3555 26.5625 44.166 26.9023 43.9199 27.1914C43.6699 27.4805 43.3672 27.707 43.0117 27.8711C42.6562 28.0352 42.2559 28.1172 41.8105 28.1172C41.3613 28.1172 40.957 28.0352 40.5977 27.8711C40.2422 27.707 39.9414 27.4805 39.6953 27.1914C39.4453 26.9023 39.2539 26.5625 39.1211 26.1719C38.9883 25.7812 38.9219 25.3574 38.9219 24.9004V24.7715ZM40.0059 24.9004C40.0059 25.2129 40.043 25.5117 40.1172 25.7969C40.1914 26.0781 40.3047 26.3262 40.457 26.541C40.6055 26.7559 40.793 26.9258 41.0195 27.0508C41.2461 27.1758 41.5098 27.2383 41.8105 27.2383C42.1074 27.2383 42.3672 27.1758 42.5898 27.0508C42.8164 26.9258 43.0059 26.7559 43.1582 26.541C43.3066 26.3262 43.418 26.0781 43.4922 25.7969C43.5664 25.5117 43.6035 25.2129 43.6035 24.9004V24.7715C43.6035 24.4629 43.5645 24.168 43.4863 23.8867C43.4121 23.6016 43.3008 23.3516 43.1523 23.1367C43 22.9219 42.8105 22.752 42.584 22.627C42.3613 22.498 42.0996 22.4336 41.7988 22.4336C41.498 22.4336 41.2363 22.498 41.0137 22.627C40.791 22.752 40.6055 22.9219 40.457 23.1367C40.3047 23.3516 40.1914 23.6016 40.1172 23.8867C40.043 24.168 40.0059 24.4629 40.0059 24.7715V24.9004ZM50.5879 21.543C50.7871 21.543 50.9941 21.5566 51.209 21.584C51.4277 21.6113 51.5918 21.6484 51.7012 21.6953L51.5547 22.7559C51.3438 22.709 51.1426 22.6758 50.9512 22.6562C50.7637 22.6328 50.5664 22.6211 50.3594 22.6211C50.0938 22.6211 49.8535 22.6543 49.6387 22.7207C49.4238 22.7832 49.2363 22.877 49.0762 23.002C48.9316 23.1113 48.8047 23.2461 48.6953 23.4062C48.5898 23.5625 48.502 23.7383 48.4316 23.9336V28H47.3418V21.6602H48.373L48.4199 22.5098L48.4258 22.668C48.6836 22.3203 48.9922 22.0469 49.3516 21.8477C49.7148 21.6445 50.127 21.543 50.5879 21.543ZM55.5391 25.041L54.7422 25.8086V28H53.6523V19H54.7422V24.5078L55.4512 23.7461L57.5312 21.6602H58.8496L56.2832 24.3027L59.2422 28H57.8652L55.5391 25.041ZM65.0605 26.3184C65.0605 26.1895 65.0352 26.0742 64.9844 25.9727C64.9336 25.8672 64.8477 25.7715 64.7266 25.6855C64.6055 25.5996 64.4453 25.5215 64.2461 25.4512C64.0469 25.377 63.7988 25.3105 63.502 25.252C63.1387 25.1777 62.8066 25.0879 62.5059 24.9824C62.209 24.877 61.9551 24.75 61.7441 24.6016C61.5293 24.457 61.3633 24.2871 61.2461 24.0918C61.1289 23.8926 61.0703 23.6621 61.0703 23.4004C61.0703 23.1426 61.1309 22.9023 61.252 22.6797C61.373 22.4531 61.543 22.2559 61.7617 22.0879C61.9805 21.9199 62.2402 21.7871 62.541 21.6895C62.8457 21.5918 63.1797 21.543 63.543 21.543C63.9336 21.543 64.2852 21.5938 64.5977 21.6953C64.9102 21.7969 65.1758 21.9375 65.3945 22.1172C65.6133 22.2969 65.7812 22.5078 65.8984 22.75C66.0195 22.9883 66.0801 23.2461 66.0801 23.5234H64.9961C64.9961 23.3867 64.9609 23.2539 64.8906 23.125C64.8203 22.9922 64.7227 22.875 64.5977 22.7734C64.4727 22.6719 64.3203 22.5898 64.1406 22.5273C63.9648 22.4648 63.7656 22.4336 63.543 22.4336C63.3125 22.4336 63.1094 22.459 62.9336 22.5098C62.7617 22.5605 62.6191 22.6289 62.5059 22.7148C62.3887 22.8008 62.3008 22.9004 62.2422 23.0137C62.1836 23.127 62.1543 23.2441 62.1543 23.3652C62.1543 23.4902 62.1777 23.6016 62.2246 23.6992C62.2715 23.7969 62.3535 23.8848 62.4707 23.9629C62.584 24.041 62.7363 24.1113 62.9277 24.1738C63.123 24.2363 63.3691 24.2969 63.666 24.3555C64.0566 24.4375 64.4062 24.5332 64.7148 24.6426C65.0234 24.748 65.2832 24.875 65.4941 25.0234C65.7051 25.1758 65.8652 25.3516 65.9746 25.5508C66.0879 25.75 66.1445 25.9805 66.1445 26.2422C66.1445 26.5234 66.0801 26.7793 65.9512 27.0098C65.8262 27.2402 65.6504 27.4375 65.4238 27.6016C65.1973 27.7656 64.9258 27.8926 64.6094 27.9824C64.293 28.0723 63.9473 28.1172 63.5723 28.1172C63.1426 28.1172 62.7598 28.0605 62.4238 27.9473C62.0879 27.8301 61.8047 27.6758 61.5742 27.4844C61.3398 27.2969 61.1602 27.0781 61.0352 26.8281C60.9141 26.5781 60.8535 26.3184 60.8535 26.0488H61.9375C61.9531 26.2715 62.0117 26.459 62.1133 26.6113C62.2188 26.7637 62.3496 26.8867 62.5059 26.9805C62.6582 27.0742 62.8281 27.1406 63.0156 27.1797C63.2031 27.2188 63.3887 27.2383 63.5723 27.2383C63.8613 27.2383 64.1133 27.2051 64.3281 27.1387C64.543 27.0684 64.7109 26.9727 64.832 26.8516C64.9062 26.7773 64.9629 26.6953 65.002 26.6055C65.041 26.5156 65.0605 26.4199 65.0605 26.3184Z" fill="#959595"/>
<g filter="url(#filter0_iiii_257_3449)">
<rect x="91" y="5" width="108" height="36" rx="8" fill="url(#paint0_linear_257_3449)"/>
</g>
<path d="M112.203 24.5781V28H111.119V19.4688H113.885C114.268 19.4766 114.629 19.5371 114.969 19.6504C115.312 19.7637 115.613 19.9277 115.871 20.1426C116.129 20.3574 116.332 20.623 116.48 20.9395C116.633 21.2559 116.709 21.6191 116.709 22.0293C116.709 22.4395 116.633 22.8027 116.48 23.1191C116.332 23.4316 116.129 23.6953 115.871 23.9102C115.613 24.125 115.312 24.2891 114.969 24.4023C114.629 24.5156 114.268 24.5742 113.885 24.5781H112.203ZM112.203 23.6875H113.885C114.135 23.6836 114.365 23.6445 114.576 23.5703C114.787 23.4922 114.971 23.3828 115.127 23.2422C115.283 23.1016 115.404 22.9316 115.49 22.7324C115.58 22.5293 115.625 22.2988 115.625 22.041C115.625 21.7832 115.58 21.5508 115.49 21.3438C115.404 21.1367 115.285 20.9609 115.133 20.8164C114.977 20.6719 114.791 20.5605 114.576 20.4824C114.365 20.4043 114.135 20.3633 113.885 20.3594H112.203V23.6875ZM118.396 19H121.637V27.0625H123.705V28H118.396V27.0625H120.553V19.9434H118.396V19ZM129.6 28C129.557 27.918 129.521 27.8164 129.494 27.6953C129.471 27.5703 129.453 27.4414 129.441 27.3086C129.332 27.418 129.209 27.5215 129.072 27.6191C128.939 27.7168 128.793 27.8027 128.633 27.877C128.469 27.9512 128.295 28.0098 128.111 28.0527C127.928 28.0957 127.732 28.1172 127.525 28.1172C127.189 28.1172 126.885 28.0684 126.611 27.9707C126.342 27.873 126.113 27.7402 125.926 27.5723C125.734 27.4082 125.586 27.2129 125.48 26.9863C125.379 26.7559 125.328 26.5078 125.328 26.2422C125.328 25.8945 125.396 25.5898 125.533 25.3281C125.674 25.0664 125.871 24.8477 126.125 24.6719C126.379 24.5 126.684 24.3711 127.039 24.2852C127.398 24.1992 127.799 24.1562 128.24 24.1562H129.424V23.6582C129.424 23.4668 129.389 23.2949 129.318 23.1426C129.248 22.9902 129.148 22.8594 129.02 22.75C128.891 22.6445 128.732 22.5625 128.545 22.5039C128.361 22.4453 128.154 22.416 127.924 22.416C127.709 22.416 127.516 22.4434 127.344 22.498C127.176 22.5527 127.033 22.625 126.916 22.7148C126.799 22.8047 126.707 22.9121 126.641 23.0371C126.578 23.1582 126.547 23.2852 126.547 23.418H125.457C125.461 23.1875 125.52 22.9609 125.633 22.7383C125.75 22.5156 125.918 22.3145 126.137 22.1348C126.352 21.959 126.613 21.8164 126.922 21.707C127.234 21.5977 127.588 21.543 127.982 21.543C128.342 21.543 128.676 21.5879 128.984 21.6777C129.293 21.7637 129.561 21.8945 129.787 22.0703C130.01 22.25 130.186 22.4727 130.314 22.7383C130.443 23.0039 130.508 23.3145 130.508 23.6699V26.6172C130.508 26.8281 130.527 27.0527 130.566 27.291C130.605 27.5254 130.66 27.7305 130.73 27.9062V28H129.6ZM127.684 27.1738C127.895 27.1738 128.092 27.1465 128.275 27.0918C128.459 27.0371 128.627 26.9648 128.779 26.875C128.928 26.7852 129.057 26.6836 129.166 26.5703C129.275 26.4531 129.361 26.332 129.424 26.207V24.9238H128.416C128.041 24.9238 127.713 24.957 127.432 25.0234C127.154 25.0859 126.934 25.1836 126.77 25.3164C126.652 25.4102 126.562 25.5215 126.5 25.6504C126.441 25.7793 126.412 25.9258 126.412 26.0898C126.412 26.2461 126.438 26.3906 126.488 26.5234C126.543 26.6562 126.623 26.7695 126.729 26.8633C126.834 26.9609 126.967 27.0371 127.127 27.0918C127.287 27.1465 127.473 27.1738 127.684 27.1738ZM133.15 30.5605C133.049 30.5605 132.93 30.5488 132.793 30.5254C132.656 30.502 132.553 30.4824 132.482 30.4668L132.658 29.582C132.756 29.5898 132.852 29.5957 132.945 29.5996C133.043 29.6074 133.119 29.6113 133.174 29.6113C133.322 29.6113 133.457 29.5703 133.578 29.4883C133.703 29.4062 133.814 29.3086 133.912 29.1953C134.006 29.082 134.086 28.9648 134.152 28.8438C134.223 28.7227 134.277 28.623 134.316 28.5449L134.75 27.7012L132.02 21.6602H133.232L134.973 25.75L135.254 26.5176L135.553 25.7734L137.188 21.6602H138.4L135.184 28.9785C135.109 29.1426 135.014 29.3164 134.896 29.5C134.783 29.6836 134.645 29.8535 134.48 30.0098C134.316 30.166 134.125 30.2969 133.906 30.4023C133.688 30.5078 133.436 30.5605 133.15 30.5605ZM139.648 24.7773C139.648 24.3047 139.705 23.8711 139.818 23.4766C139.936 23.0781 140.104 22.7363 140.322 22.4512C140.541 22.166 140.807 21.9434 141.119 21.7832C141.432 21.623 141.785 21.543 142.18 21.543C142.434 21.543 142.666 21.5723 142.877 21.6309C143.092 21.6895 143.285 21.7754 143.457 21.8887C143.551 21.9473 143.639 22.0156 143.721 22.0938C143.807 22.1719 143.887 22.2578 143.961 22.3516L144.014 21.6602H144.998V27.8652C144.998 28.2832 144.932 28.6543 144.799 28.9785C144.67 29.3027 144.488 29.5781 144.254 29.8047C144.016 30.0312 143.732 30.2031 143.404 30.3203C143.076 30.4375 142.713 30.4961 142.314 30.4961C142.15 30.4961 141.963 30.4766 141.752 30.4375C141.541 30.4023 141.328 30.3418 141.113 30.2559C140.895 30.1738 140.684 30.0625 140.48 29.9219C140.281 29.7812 140.109 29.6074 139.965 29.4004L140.527 28.75C140.66 28.9102 140.797 29.0449 140.938 29.1543C141.078 29.2676 141.221 29.3574 141.365 29.4238C141.51 29.4902 141.654 29.5371 141.799 29.5645C141.943 29.5957 142.088 29.6113 142.232 29.6113C142.49 29.6113 142.723 29.5742 142.93 29.5C143.137 29.4258 143.314 29.3164 143.463 29.1719C143.607 29.0312 143.719 28.8555 143.797 28.6445C143.875 28.4336 143.914 28.1914 143.914 27.918V27.373C143.832 27.4668 143.744 27.5527 143.65 27.6309C143.561 27.709 143.463 27.7773 143.357 27.8359C143.193 27.9258 143.012 27.9941 142.812 28.041C142.613 28.0918 142.398 28.1172 142.168 28.1172C141.781 28.1172 141.432 28.0352 141.119 27.8711C140.807 27.707 140.543 27.4805 140.328 27.1914C140.109 26.9023 139.941 26.5625 139.824 26.1719C139.707 25.7773 139.648 25.3535 139.648 24.9004V24.7773ZM140.732 24.9004C140.732 25.209 140.764 25.502 140.826 25.7793C140.893 26.0566 140.996 26.3008 141.137 26.5117C141.273 26.7227 141.449 26.8906 141.664 27.0156C141.879 27.1367 142.137 27.1973 142.438 27.1973C142.625 27.1973 142.793 27.1758 142.941 27.1328C143.094 27.0859 143.23 27.0215 143.352 26.9395C143.469 26.8574 143.574 26.7598 143.668 26.6465C143.762 26.5332 143.844 26.4082 143.914 26.2715V23.3652C143.844 23.2324 143.762 23.1113 143.668 23.002C143.574 22.8926 143.467 22.7969 143.346 22.7148C143.225 22.6367 143.09 22.5762 142.941 22.5332C142.793 22.4863 142.629 22.4629 142.449 22.4629C142.145 22.4629 141.883 22.5254 141.664 22.6504C141.449 22.7754 141.273 22.9434 141.137 23.1543C140.996 23.3691 140.893 23.6172 140.826 23.8984C140.764 24.1758 140.732 24.4688 140.732 24.7773V24.9004ZM151.209 21.543C151.408 21.543 151.615 21.5566 151.83 21.584C152.049 21.6113 152.213 21.6484 152.322 21.6953L152.176 22.7559C151.965 22.709 151.764 22.6758 151.572 22.6562C151.385 22.6328 151.188 22.6211 150.98 22.6211C150.715 22.6211 150.475 22.6543 150.26 22.7207C150.045 22.7832 149.857 22.877 149.697 23.002C149.553 23.1113 149.426 23.2461 149.316 23.4062C149.211 23.5625 149.123 23.7383 149.053 23.9336V28H147.963V21.6602H148.994L149.041 22.5098L149.047 22.668C149.305 22.3203 149.613 22.0469 149.973 21.8477C150.336 21.6445 150.748 21.543 151.209 21.543ZM153.957 24.7715C153.957 24.3145 154.023 23.8906 154.156 23.5C154.289 23.1055 154.48 22.7637 154.73 22.4746C154.977 22.1855 155.277 21.959 155.633 21.7949C155.988 21.627 156.389 21.543 156.834 21.543C157.283 21.543 157.686 21.627 158.041 21.7949C158.4 21.959 158.705 22.1855 158.955 22.4746C159.201 22.7637 159.391 23.1055 159.523 23.5C159.656 23.8906 159.723 24.3145 159.723 24.7715V24.9004C159.723 25.3574 159.656 25.7812 159.523 26.1719C159.391 26.5625 159.201 26.9023 158.955 27.1914C158.705 27.4805 158.402 27.707 158.047 27.8711C157.691 28.0352 157.291 28.1172 156.846 28.1172C156.396 28.1172 155.992 28.0352 155.633 27.8711C155.277 27.707 154.977 27.4805 154.73 27.1914C154.48 26.9023 154.289 26.5625 154.156 26.1719C154.023 25.7812 153.957 25.3574 153.957 24.9004V24.7715ZM155.041 24.9004C155.041 25.2129 155.078 25.5117 155.152 25.7969C155.227 26.0781 155.34 26.3262 155.492 26.541C155.641 26.7559 155.828 26.9258 156.055 27.0508C156.281 27.1758 156.545 27.2383 156.846 27.2383C157.143 27.2383 157.402 27.1758 157.625 27.0508C157.852 26.9258 158.041 26.7559 158.193 26.541C158.342 26.3262 158.453 26.0781 158.527 25.7969C158.602 25.5117 158.639 25.2129 158.639 24.9004V24.7715C158.639 24.4629 158.6 24.168 158.521 23.8867C158.447 23.6016 158.336 23.3516 158.188 23.1367C158.035 22.9219 157.846 22.752 157.619 22.627C157.396 22.498 157.135 22.4336 156.834 22.4336C156.533 22.4336 156.271 22.498 156.049 22.627C155.826 22.752 155.641 22.9219 155.492 23.1367C155.34 23.3516 155.227 23.6016 155.152 23.8867C155.078 24.168 155.041 24.4629 155.041 24.7715V24.9004ZM165.646 28L165.582 27.127C165.371 27.4395 165.107 27.6836 164.791 27.8594C164.475 28.0312 164.109 28.1172 163.695 28.1172C163.363 28.1172 163.062 28.0664 162.793 27.9648C162.523 27.8594 162.293 27.6973 162.102 27.4785C161.91 27.2598 161.762 26.9824 161.656 26.6465C161.555 26.3066 161.504 25.9004 161.504 25.4277V21.6602H162.588V25.4395C162.588 25.7832 162.615 26.0684 162.67 26.2949C162.725 26.5215 162.807 26.7012 162.916 26.834C163.025 26.9707 163.158 27.0664 163.314 27.1211C163.475 27.1758 163.658 27.2031 163.865 27.2031C164.107 27.2031 164.324 27.1758 164.516 27.1211C164.707 27.0625 164.873 26.9824 165.014 26.8809C165.131 26.7988 165.232 26.7012 165.318 26.5879C165.408 26.4707 165.482 26.3438 165.541 26.207V21.6602H166.631V28H165.646ZM168.676 28V21.6602H169.648L169.725 22.5977C169.818 22.4648 169.92 22.3438 170.029 22.2344C170.143 22.1211 170.262 22.0234 170.387 21.9414C170.574 21.8164 170.777 21.7207 170.996 21.6543C171.219 21.584 171.453 21.5469 171.699 21.543C172.031 21.543 172.332 21.5898 172.602 21.6836C172.875 21.7773 173.107 21.9238 173.299 22.123C173.49 22.3223 173.637 22.5762 173.738 22.8848C173.844 23.1895 173.896 23.5527 173.896 23.9746V28H172.812V23.998C172.812 23.7168 172.781 23.4785 172.719 23.2832C172.656 23.0879 172.564 22.9297 172.443 22.8086C172.318 22.6875 172.166 22.5996 171.986 22.5449C171.811 22.4902 171.607 22.4629 171.377 22.4629C171.178 22.4629 170.992 22.4922 170.82 22.5508C170.648 22.6055 170.49 22.6816 170.346 22.7793C170.229 22.8652 170.119 22.9648 170.018 23.0781C169.92 23.1914 169.834 23.3164 169.76 23.4531V28H168.676ZM175.678 24.7773C175.678 24.3047 175.736 23.8711 175.854 23.4766C175.975 23.0781 176.146 22.7363 176.369 22.4512C176.588 22.166 176.854 21.9434 177.166 21.7832C177.479 21.623 177.828 21.543 178.215 21.543C178.594 21.543 178.924 21.6074 179.205 21.7363C179.49 21.8613 179.736 22.0449 179.943 22.2871V19H181.027V28H180.031L179.984 27.332C179.773 27.5898 179.521 27.7852 179.229 27.918C178.936 28.0508 178.594 28.1172 178.203 28.1172C177.82 28.1172 177.473 28.0352 177.16 27.8711C176.852 27.707 176.588 27.4805 176.369 27.1914C176.15 26.9023 175.98 26.5625 175.859 26.1719C175.738 25.7773 175.678 25.3535 175.678 24.9004V24.7773ZM176.762 24.9004C176.762 25.209 176.795 25.502 176.861 25.7793C176.928 26.0566 177.031 26.3008 177.172 26.5117C177.309 26.7227 177.484 26.8906 177.699 27.0156C177.914 27.1367 178.172 27.1973 178.473 27.1973C178.836 27.1973 179.137 27.1152 179.375 26.9512C179.613 26.7871 179.803 26.5664 179.943 26.2891V23.3477C179.803 23.0898 179.613 22.8789 179.375 22.7148C179.137 22.5469 178.84 22.4629 178.484 22.4629C178.18 22.4629 177.918 22.5254 177.699 22.6504C177.484 22.7754 177.309 22.9434 177.172 23.1543C177.031 23.3691 176.928 23.6172 176.861 23.8984C176.795 24.1758 176.762 24.4688 176.762 24.7773V24.9004Z" fill="white"/>
<defs>
<filter id="filter0_iiii_257_3449" x="91" y="-16" width="108" height="58.2" filterUnits="userSpaceOnUse" color-interpolation-filters="sRGB">
<feFlood flood-opacity="0" result="BackgroundImageFix"/>
<feBlend mode="normal" in="SourceGraphic" in2="BackgroundImageFix" result="shape"/>
<feColorMatrix in="SourceAlpha" type="matrix" values="0 0 0 0 0 0 0 0 0 0 0 0 0 0 0 0 0 0 127 0" result="hardAlpha"/>
<feMorphology radius="9" operator="dilate" in="SourceAlpha" result="effect1_innerShadow_257_3449"/>
<feOffset dy="-34"/>
<feGaussianBlur stdDeviation="15"/>
<feComposite in2="hardAlpha" operator="arithmetic" k2="-1" k3="1"/>
<feColorMatrix type="matrix" values="0 0 0 0 0.104248 0 0 0 0 0.104248 0 0 0 0 0.104248 0 0 0 1 0"/>
<feBlend mode="normal" in2="shape" result="effect1_innerShadow_257_3449"/>
<feColorMatrix in="SourceAlpha" type="matrix" values="0 0 0 0 0 0 0 0 0 0 0 0 0 0 0 0 0 0 127 0" result="hardAlpha"/>
<feMorphology radius="2.5" operator="dilate" in="SourceAlpha" result="effect2_innerShadow_257_3449"/>
<feOffset dy="-26"/>
<feGaussianBlur stdDeviation="10"/>
<feComposite in2="hardAlpha" operator="arithmetic" k2="-1" k3="1"/>
<feColorMatrix type="matrix" values="0 0 0 0 0.528433 0 0 0 0 0.528433 0 0 0 0 0.528433 0 0 0 0.46 0"/>
<feBlend mode="normal" in2="effect1_innerShadow_257_3449" result="effect2_innerShadow_257_3449"/>
<feColorMatrix in="SourceAlpha" type="matrix" values="0 0 0 0 0 0 0 0 0 0 0 0 0 0 0 0 0 0 127 0" result="hardAlpha"/>
<feMorphology radius="2" operator="dilate" in="SourceAlpha" result="effect3_innerShadow_257_3449"/>
<feOffset dy="-9"/>
<feGaussianBlur stdDeviation="6.55"/>
<feComposite in2="hardAlpha" operator="arithmetic" k2="-1" k3="1"/>
<feColorMatrix type="matrix" values="0 0 0 0 1 0 0 0 0 1 0 0 0 0 1 0 0 0 0.37 0"/>
<feBlend mode="plus-lighter" in2="effect2_innerShadow_257_3449" result="effect3_innerShadow_257_3449"/>
<feColorMatrix in="SourceAlpha" type="matrix" values="0 0 0 0 0 0 0 0 0 0 0 0 0 0 0 0 0 0 127 0" result="hardAlpha"/>
<feMorphology radius="0.8" operator="dilate" in="SourceAlpha" result="effect4_innerShadow_257_3449"/>
<feOffset dy="2"/>
<feGaussianBlur stdDeviation="1"/>
<feComposite in2="hardAlpha" operator="arithmetic" k2="-1" k3="1"/>
<feColorMatrix type="matrix" values="0 0 0 0 0.203922 0 0 0 0 0.203922 0 0 0 0 0.203922 0 0 0 0.52 0"/>
<feBlend mode="normal" in2="effect3_innerShadow_257_3449" result="effect4_innerShadow_257_3449"/>
</filter>
<linearGradient id="paint0_linear_257_3449" x1="145" y1="5" x2="145" y2="41" gradientUnits="userSpaceOnUse">
<stop/>
<stop offset="1" stop-color="#222222"/>
</linearGradient>
</defs>
</svg>
