<svg width="103" height="24" viewBox="0 0 103 24" fill="none" xmlns="http://www.w3.org/2000/svg">
<rect width="103" height="24" rx="12" fill="#51FFD2"/>
<path d="M33.4148 7.27273L36.0057 14.6193H36.108L38.6989 7.27273H39.8068L36.6023 16H35.5114L32.3068 7.27273H33.4148ZM41.0298 16V9.45455H42.0355V16H41.0298ZM41.5412 8.36364C41.3452 8.36364 41.1761 8.29688 41.0341 8.16335C40.8949 8.02983 40.8253 7.86932 40.8253 7.68182C40.8253 7.49432 40.8949 7.33381 41.0341 7.20028C41.1761 7.06676 41.3452 7 41.5412 7C41.7372 7 41.9048 7.06676 42.044 7.20028C42.1861 7.33381 42.2571 7.49432 42.2571 7.68182C42.2571 7.86932 42.1861 8.02983 42.044 8.16335C41.9048 8.29688 41.7372 8.36364 41.5412 8.36364ZM46.6218 16.1364C45.9911 16.1364 45.4471 15.9972 44.9897 15.7188C44.5352 15.4375 44.1843 15.0455 43.9371 14.5426C43.6928 14.0369 43.5707 13.4489 43.5707 12.7784C43.5707 12.108 43.6928 11.517 43.9371 11.0057C44.1843 10.4915 44.5281 10.0909 44.9684 9.80398C45.4116 9.5142 45.9286 9.36932 46.5195 9.36932C46.8604 9.36932 47.1971 9.42614 47.5295 9.53977C47.8619 9.65341 48.1644 9.83807 48.4371 10.0938C48.7099 10.3466 48.9272 10.6818 49.0891 11.0994C49.2511 11.517 49.332 12.0312 49.332 12.642V13.0682H44.2866V12.1989H48.3093C48.3093 11.8295 48.2354 11.5 48.0877 11.2102C47.9428 10.9205 47.7354 10.6918 47.4656 10.5241C47.1985 10.3565 46.8832 10.2727 46.5195 10.2727C46.119 10.2727 45.7724 10.3722 45.4798 10.571C45.19 10.767 44.967 11.0227 44.8107 11.3381C44.6545 11.6534 44.5763 11.9915 44.5763 12.3523V12.9318C44.5763 13.4261 44.6616 13.8452 44.832 14.1889C45.0053 14.5298 45.2454 14.7898 45.5522 14.9688C45.859 15.1449 46.2156 15.233 46.6218 15.233C46.886 15.233 47.1246 15.196 47.3377 15.1222C47.5536 15.0455 47.7397 14.9318 47.896 14.7812C48.0522 14.6278 48.1729 14.4375 48.2582 14.2102L49.2298 14.483C49.1275 14.8125 48.9556 15.1023 48.7141 15.3523C48.4727 15.5994 48.1744 15.7926 47.8192 15.9318C47.4641 16.0682 47.065 16.1364 46.6218 16.1364ZM52.3448 16L50.3505 9.45455H51.4073L52.8221 14.4659H52.8903L54.288 9.45455H55.3619L56.7425 14.4489H56.8107L58.2255 9.45455H59.2823L57.288 16H56.2994L54.8675 10.9716H54.7653L53.3335 16H52.3448ZM68.896 9.45455C68.8448 9.02273 68.6374 8.6875 68.2738 8.44886C67.9102 8.21023 67.4641 8.09091 66.9357 8.09091C66.5494 8.09091 66.2113 8.15341 65.9215 8.27841C65.6346 8.40341 65.4102 8.57528 65.2482 8.79403C65.0891 9.01278 65.0096 9.26136 65.0096 9.53977C65.0096 9.77273 65.065 9.97301 65.1758 10.1406C65.2894 10.3054 65.4343 10.4432 65.6104 10.554C65.7866 10.6619 65.9712 10.7514 66.1644 10.8224C66.3576 10.8906 66.5352 10.946 66.6971 10.9886L67.5835 11.2273C67.8107 11.2869 68.0636 11.3693 68.342 11.4744C68.6232 11.5795 68.8917 11.723 69.1474 11.9048C69.4059 12.0838 69.619 12.3139 69.7866 12.5952C69.9542 12.8764 70.038 13.2216 70.038 13.6307C70.038 14.1023 69.9144 14.5284 69.6673 14.9091C69.4229 15.2898 69.065 15.5923 68.5934 15.8168C68.1246 16.0412 67.555 16.1534 66.8846 16.1534C66.2596 16.1534 65.7184 16.0526 65.261 15.8509C64.8065 15.6491 64.4485 15.3679 64.1871 15.0071C63.9286 14.6463 63.7823 14.2273 63.7482 13.75H64.8391C64.8675 14.0795 64.9783 14.3523 65.1715 14.5682C65.3675 14.7812 65.6147 14.9403 65.913 15.0455C66.2141 15.1477 66.538 15.1989 66.8846 15.1989C67.288 15.1989 67.6502 15.1335 67.9712 15.0028C68.2923 14.8693 68.5465 14.6847 68.734 14.4489C68.9215 14.2102 69.0153 13.9318 69.0153 13.6136C69.0153 13.3239 68.9343 13.0881 68.7724 12.9062C68.6104 12.7244 68.3974 12.5767 68.1332 12.4631C67.869 12.3494 67.5835 12.25 67.2766 12.1648L66.2028 11.858C65.521 11.6619 64.9812 11.3821 64.5835 11.0185C64.1857 10.6548 63.9869 10.179 63.9869 9.59091C63.9869 9.10227 64.119 8.67614 64.3832 8.3125C64.6502 7.94602 65.0082 7.66193 65.457 7.46023C65.9087 7.25568 66.413 7.15341 66.9698 7.15341C67.5323 7.15341 68.0323 7.25426 68.4698 7.45597C68.9073 7.65483 69.2539 7.92756 69.5096 8.27415C69.7681 8.62074 69.9045 9.0142 69.9187 9.45455H68.896ZM71.6392 16V9.45455H72.6449V16H71.6392ZM72.1506 8.36364C71.9545 8.36364 71.7855 8.29688 71.6435 8.16335C71.5043 8.02983 71.4347 7.86932 71.4347 7.68182C71.4347 7.49432 71.5043 7.33381 71.6435 7.20028C71.7855 7.06676 71.9545 7 72.1506 7C72.3466 7 72.5142 7.06676 72.6534 7.20028C72.7955 7.33381 72.8665 7.49432 72.8665 7.68182C72.8665 7.86932 72.7955 8.02983 72.6534 8.16335C72.5142 8.29688 72.3466 8.36364 72.1506 8.36364ZM77.3335 9.45455V10.3068H73.9414V9.45455H77.3335ZM74.93 7.88636H75.9357V14.125C75.9357 14.4091 75.9769 14.6222 76.0593 14.7642C76.1445 14.9034 76.2525 14.9972 76.3832 15.0455C76.5167 15.0909 76.6573 15.1136 76.805 15.1136C76.9158 15.1136 77.0067 15.108 77.0778 15.0966C77.1488 15.0824 77.2056 15.071 77.2482 15.0625L77.4528 15.9659C77.3846 15.9915 77.2894 16.017 77.1673 16.0426C77.0451 16.071 76.8903 16.0852 76.7028 16.0852C76.4187 16.0852 76.1403 16.0241 75.8675 15.902C75.5977 15.7798 75.3732 15.5938 75.1942 15.3438C75.0181 15.0938 74.93 14.7784 74.93 14.3977V7.88636ZM81.5202 16.1364C80.8896 16.1364 80.3455 15.9972 79.8881 15.7188C79.4336 15.4375 79.0827 15.0455 78.8356 14.5426C78.5913 14.0369 78.4691 13.4489 78.4691 12.7784C78.4691 12.108 78.5913 11.517 78.8356 11.0057C79.0827 10.4915 79.4265 10.0909 79.8668 9.80398C80.31 9.5142 80.8271 9.36932 81.418 9.36932C81.7589 9.36932 82.0955 9.42614 82.4279 9.53977C82.7603 9.65341 83.0629 9.83807 83.3356 10.0938C83.6083 10.3466 83.8256 10.6818 83.9876 11.0994C84.1495 11.517 84.2305 12.0312 84.2305 12.642V13.0682H79.185V12.1989H83.2077C83.2077 11.8295 83.1339 11.5 82.9862 11.2102C82.8413 10.9205 82.6339 10.6918 82.364 10.5241C82.0969 10.3565 81.7816 10.2727 81.418 10.2727C81.0174 10.2727 80.6708 10.3722 80.3782 10.571C80.0884 10.767 79.8654 11.0227 79.7092 11.3381C79.5529 11.6534 79.4748 11.9915 79.4748 12.3523V12.9318C79.4748 13.4261 79.56 13.8452 79.7305 14.1889C79.9038 14.5298 80.1438 14.7898 80.4506 14.9688C80.7575 15.1449 81.114 15.233 81.5202 15.233C81.7844 15.233 82.0231 15.196 82.2362 15.1222C82.4521 15.0455 82.6381 14.9318 82.7944 14.7812C82.9506 14.6278 83.0714 14.4375 83.1566 14.2102L84.1282 14.483C84.0259 14.8125 83.854 15.1023 83.6126 15.3523C83.3711 15.5994 83.0728 15.7926 82.7177 15.9318C82.3626 16.0682 81.9634 16.1364 81.5202 16.1364Z" fill="black"/>
<path d="M19.9812 10.5C19.1375 10.5 18.4812 11.1562 18.4812 12C18.4812 12.8438 19.1375 13.5 19.9812 13.5C20.825 13.5 21.4812 12.8438 21.4812 12C21.4812 11.1562 20.825 10.5 19.9812 10.5ZM19.9812 12.5063C19.6812 12.5063 19.475 12.3 19.475 12C19.475 11.7 19.6812 11.4937 19.9812 11.4937C20.2812 11.4937 20.4875 11.7 20.4875 12C20.4875 12.3 20.2812 12.5063 19.9812 12.5063Z" fill="black"/>
<path d="M25.8875 11.6984C24.5937 9.69219 22.3812 8.49219 19.9812 8.49219C17.5812 8.49219 15.3875 9.69219 14.075 11.6984C13.9812 11.9047 13.9812 12.1484 14.075 12.2984C15.3687 14.3047 17.5812 15.5047 19.9812 15.5047C22.3812 15.5047 24.575 14.3047 25.8875 12.2984C26.0375 12.0922 26.0375 11.9047 25.8875 11.6984ZM19.9812 14.5484C17.975 14.5484 16.175 13.5922 15.0875 11.9984C16.1937 10.4047 18.0312 9.44844 19.9812 9.44844C21.9875 9.44844 23.7875 10.4047 24.875 11.9984C23.7875 13.5922 21.9875 14.5484 19.9812 14.5484Z" fill="black"/>
</svg>
