<svg width="207" height="48" viewBox="0 0 207 48" fill="none" xmlns="http://www.w3.org/2000/svg">
<rect x="0.5" y="0.5" width="206" height="47" rx="11.5" stroke="#EEEEEE"/>
<g filter="url(#filter0_iiii_248_3282)">
<rect x="8" y="5" width="83" height="36" rx="8" fill="url(#paint0_linear_248_3282)"/>
</g>
<path d="M32.4648 28L31.4277 19.4688H32.459L33.0742 25.3516L33.1094 25.6914L33.1738 25.3398L34.2051 19.4688H35.1484L36.1855 25.3457L36.25 25.6914L36.2852 25.3398L36.9004 19.4688H37.9258L36.8887 28H35.7812L34.7441 21.9297L34.6855 21.5723L34.6211 21.9355L33.5781 28H32.4648ZM38.9219 24.7715C38.9219 24.3145 38.9883 23.8906 39.1211 23.5C39.2539 23.1055 39.4453 22.7637 39.6953 22.4746C39.9414 22.1855 40.2422 21.959 40.5977 21.7949C40.9531 21.627 41.3535 21.543 41.7988 21.543C42.248 21.543 42.6504 21.627 43.0059 21.7949C43.3652 21.959 43.6699 22.1855 43.9199 22.4746C44.166 22.7637 44.3555 23.1055 44.4883 23.5C44.6211 23.8906 44.6875 24.3145 44.6875 24.7715V24.9004C44.6875 25.3574 44.6211 25.7812 44.4883 26.1719C44.3555 26.5625 44.166 26.9023 43.9199 27.1914C43.6699 27.4805 43.3672 27.707 43.0117 27.8711C42.6562 28.0352 42.2559 28.1172 41.8105 28.1172C41.3613 28.1172 40.957 28.0352 40.5977 27.8711C40.2422 27.707 39.9414 27.4805 39.6953 27.1914C39.4453 26.9023 39.2539 26.5625 39.1211 26.1719C38.9883 25.7812 38.9219 25.3574 38.9219 24.9004V24.7715ZM40.0059 24.9004C40.0059 25.2129 40.043 25.5117 40.1172 25.7969C40.1914 26.0781 40.3047 26.3262 40.457 26.541C40.6055 26.7559 40.793 26.9258 41.0195 27.0508C41.2461 27.1758 41.5098 27.2383 41.8105 27.2383C42.1074 27.2383 42.3672 27.1758 42.5898 27.0508C42.8164 26.9258 43.0059 26.7559 43.1582 26.541C43.3066 26.3262 43.418 26.0781 43.4922 25.7969C43.5664 25.5117 43.6035 25.2129 43.6035 24.9004V24.7715C43.6035 24.4629 43.5645 24.168 43.4863 23.8867C43.4121 23.6016 43.3008 23.3516 43.1523 23.1367C43 22.9219 42.8105 22.752 42.584 22.627C42.3613 22.498 42.0996 22.4336 41.7988 22.4336C41.498 22.4336 41.2363 22.498 41.0137 22.627C40.791 22.752 40.6055 22.9219 40.457 23.1367C40.3047 23.3516 40.1914 23.6016 40.1172 23.8867C40.043 24.168 40.0059 24.4629 40.0059 24.7715V24.9004ZM50.5879 21.543C50.7871 21.543 50.9941 21.5566 51.209 21.584C51.4277 21.6113 51.5918 21.6484 51.7012 21.6953L51.5547 22.7559C51.3438 22.709 51.1426 22.6758 50.9512 22.6562C50.7637 22.6328 50.5664 22.6211 50.3594 22.6211C50.0938 22.6211 49.8535 22.6543 49.6387 22.7207C49.4238 22.7832 49.2363 22.877 49.0762 23.002C48.9316 23.1113 48.8047 23.2461 48.6953 23.4062C48.5898 23.5625 48.502 23.7383 48.4316 23.9336V28H47.3418V21.6602H48.373L48.4199 22.5098L48.4258 22.668C48.6836 22.3203 48.9922 22.0469 49.3516 21.8477C49.7148 21.6445 50.127 21.543 50.5879 21.543ZM55.5391 25.041L54.7422 25.8086V28H53.6523V19H54.7422V24.5078L55.4512 23.7461L57.5312 21.6602H58.8496L56.2832 24.3027L59.2422 28H57.8652L55.5391 25.041ZM65.0605 26.3184C65.0605 26.1895 65.0352 26.0742 64.9844 25.9727C64.9336 25.8672 64.8477 25.7715 64.7266 25.6855C64.6055 25.5996 64.4453 25.5215 64.2461 25.4512C64.0469 25.377 63.7988 25.3105 63.502 25.252C63.1387 25.1777 62.8066 25.0879 62.5059 24.9824C62.209 24.877 61.9551 24.75 61.7441 24.6016C61.5293 24.457 61.3633 24.2871 61.2461 24.0918C61.1289 23.8926 61.0703 23.6621 61.0703 23.4004C61.0703 23.1426 61.1309 22.9023 61.252 22.6797C61.373 22.4531 61.543 22.2559 61.7617 22.0879C61.9805 21.9199 62.2402 21.7871 62.541 21.6895C62.8457 21.5918 63.1797 21.543 63.543 21.543C63.9336 21.543 64.2852 21.5938 64.5977 21.6953C64.9102 21.7969 65.1758 21.9375 65.3945 22.1172C65.6133 22.2969 65.7812 22.5078 65.8984 22.75C66.0195 22.9883 66.0801 23.2461 66.0801 23.5234H64.9961C64.9961 23.3867 64.9609 23.2539 64.8906 23.125C64.8203 22.9922 64.7227 22.875 64.5977 22.7734C64.4727 22.6719 64.3203 22.5898 64.1406 22.5273C63.9648 22.4648 63.7656 22.4336 63.543 22.4336C63.3125 22.4336 63.1094 22.459 62.9336 22.5098C62.7617 22.5605 62.6191 22.6289 62.5059 22.7148C62.3887 22.8008 62.3008 22.9004 62.2422 23.0137C62.1836 23.127 62.1543 23.2441 62.1543 23.3652C62.1543 23.4902 62.1777 23.6016 62.2246 23.6992C62.2715 23.7969 62.3535 23.8848 62.4707 23.9629C62.584 24.041 62.7363 24.1113 62.9277 24.1738C63.123 24.2363 63.3691 24.2969 63.666 24.3555C64.0566 24.4375 64.4062 24.5332 64.7148 24.6426C65.0234 24.748 65.2832 24.875 65.4941 25.0234C65.7051 25.1758 65.8652 25.3516 65.9746 25.5508C66.0879 25.75 66.1445 25.9805 66.1445 26.2422C66.1445 26.5234 66.0801 26.7793 65.9512 27.0098C65.8262 27.2402 65.6504 27.4375 65.4238 27.6016C65.1973 27.7656 64.9258 27.8926 64.6094 27.9824C64.293 28.0723 63.9473 28.1172 63.5723 28.1172C63.1426 28.1172 62.7598 28.0605 62.4238 27.9473C62.0879 27.8301 61.8047 27.6758 61.5742 27.4844C61.3398 27.2969 61.1602 27.0781 61.0352 26.8281C60.9141 26.5781 60.8535 26.3184 60.8535 26.0488H61.9375C61.9531 26.2715 62.0117 26.459 62.1133 26.6113C62.2188 26.7637 62.3496 26.8867 62.5059 26.9805C62.6582 27.0742 62.8281 27.1406 63.0156 27.1797C63.2031 27.2188 63.3887 27.2383 63.5723 27.2383C63.8613 27.2383 64.1133 27.2051 64.3281 27.1387C64.543 27.0684 64.7109 26.9727 64.832 26.8516C64.9062 26.7773 64.9629 26.6953 65.002 26.6055C65.041 26.5156 65.0605 26.4199 65.0605 26.3184Z" fill="white"/>
<path d="M116.203 24.5781V28H115.119V19.4688H117.885C118.268 19.4766 118.629 19.5371 118.969 19.6504C119.312 19.7637 119.613 19.9277 119.871 20.1426C120.129 20.3574 120.332 20.623 120.48 20.9395C120.633 21.2559 120.709 21.6191 120.709 22.0293C120.709 22.4395 120.633 22.8027 120.48 23.1191C120.332 23.4316 120.129 23.6953 119.871 23.9102C119.613 24.125 119.312 24.2891 118.969 24.4023C118.629 24.5156 118.268 24.5742 117.885 24.5781H116.203ZM116.203 23.6875H117.885C118.135 23.6836 118.365 23.6445 118.576 23.5703C118.787 23.4922 118.971 23.3828 119.127 23.2422C119.283 23.1016 119.404 22.9316 119.49 22.7324C119.58 22.5293 119.625 22.2988 119.625 22.041C119.625 21.7832 119.58 21.5508 119.49 21.3438C119.404 21.1367 119.285 20.9609 119.133 20.8164C118.977 20.6719 118.791 20.5605 118.576 20.4824C118.365 20.4043 118.135 20.3633 117.885 20.3594H116.203V23.6875ZM122.396 19H125.637V27.0625H127.705V28H122.396V27.0625H124.553V19.9434H122.396V19ZM133.6 28C133.557 27.918 133.521 27.8164 133.494 27.6953C133.471 27.5703 133.453 27.4414 133.441 27.3086C133.332 27.418 133.209 27.5215 133.072 27.6191C132.939 27.7168 132.793 27.8027 132.633 27.877C132.469 27.9512 132.295 28.0098 132.111 28.0527C131.928 28.0957 131.732 28.1172 131.525 28.1172C131.189 28.1172 130.885 28.0684 130.611 27.9707C130.342 27.873 130.113 27.7402 129.926 27.5723C129.734 27.4082 129.586 27.2129 129.48 26.9863C129.379 26.7559 129.328 26.5078 129.328 26.2422C129.328 25.8945 129.396 25.5898 129.533 25.3281C129.674 25.0664 129.871 24.8477 130.125 24.6719C130.379 24.5 130.684 24.3711 131.039 24.2852C131.398 24.1992 131.799 24.1562 132.24 24.1562H133.424V23.6582C133.424 23.4668 133.389 23.2949 133.318 23.1426C133.248 22.9902 133.148 22.8594 133.02 22.75C132.891 22.6445 132.732 22.5625 132.545 22.5039C132.361 22.4453 132.154 22.416 131.924 22.416C131.709 22.416 131.516 22.4434 131.344 22.498C131.176 22.5527 131.033 22.625 130.916 22.7148C130.799 22.8047 130.707 22.9121 130.641 23.0371C130.578 23.1582 130.547 23.2852 130.547 23.418H129.457C129.461 23.1875 129.52 22.9609 129.633 22.7383C129.75 22.5156 129.918 22.3145 130.137 22.1348C130.352 21.959 130.613 21.8164 130.922 21.707C131.234 21.5977 131.588 21.543 131.982 21.543C132.342 21.543 132.676 21.5879 132.984 21.6777C133.293 21.7637 133.561 21.8945 133.787 22.0703C134.01 22.25 134.186 22.4727 134.314 22.7383C134.443 23.0039 134.508 23.3145 134.508 23.6699V26.6172C134.508 26.8281 134.527 27.0527 134.566 27.291C134.605 27.5254 134.66 27.7305 134.73 27.9062V28H133.6ZM131.684 27.1738C131.895 27.1738 132.092 27.1465 132.275 27.0918C132.459 27.0371 132.627 26.9648 132.779 26.875C132.928 26.7852 133.057 26.6836 133.166 26.5703C133.275 26.4531 133.361 26.332 133.424 26.207V24.9238H132.416C132.041 24.9238 131.713 24.957 131.432 25.0234C131.154 25.0859 130.934 25.1836 130.77 25.3164C130.652 25.4102 130.562 25.5215 130.5 25.6504C130.441 25.7793 130.412 25.9258 130.412 26.0898C130.412 26.2461 130.438 26.3906 130.488 26.5234C130.543 26.6562 130.623 26.7695 130.729 26.8633C130.834 26.9609 130.967 27.0371 131.127 27.0918C131.287 27.1465 131.473 27.1738 131.684 27.1738ZM137.15 30.5605C137.049 30.5605 136.93 30.5488 136.793 30.5254C136.656 30.502 136.553 30.4824 136.482 30.4668L136.658 29.582C136.756 29.5898 136.852 29.5957 136.945 29.5996C137.043 29.6074 137.119 29.6113 137.174 29.6113C137.322 29.6113 137.457 29.5703 137.578 29.4883C137.703 29.4062 137.814 29.3086 137.912 29.1953C138.006 29.082 138.086 28.9648 138.152 28.8438C138.223 28.7227 138.277 28.623 138.316 28.5449L138.75 27.7012L136.02 21.6602H137.232L138.973 25.75L139.254 26.5176L139.553 25.7734L141.188 21.6602H142.4L139.184 28.9785C139.109 29.1426 139.014 29.3164 138.896 29.5C138.783 29.6836 138.645 29.8535 138.48 30.0098C138.316 30.166 138.125 30.2969 137.906 30.4023C137.688 30.5078 137.436 30.5605 137.15 30.5605ZM143.648 24.7773C143.648 24.3047 143.705 23.8711 143.818 23.4766C143.936 23.0781 144.104 22.7363 144.322 22.4512C144.541 22.166 144.807 21.9434 145.119 21.7832C145.432 21.623 145.785 21.543 146.18 21.543C146.434 21.543 146.666 21.5723 146.877 21.6309C147.092 21.6895 147.285 21.7754 147.457 21.8887C147.551 21.9473 147.639 22.0156 147.721 22.0938C147.807 22.1719 147.887 22.2578 147.961 22.3516L148.014 21.6602H148.998V27.8652C148.998 28.2832 148.932 28.6543 148.799 28.9785C148.67 29.3027 148.488 29.5781 148.254 29.8047C148.016 30.0312 147.732 30.2031 147.404 30.3203C147.076 30.4375 146.713 30.4961 146.314 30.4961C146.15 30.4961 145.963 30.4766 145.752 30.4375C145.541 30.4023 145.328 30.3418 145.113 30.2559C144.895 30.1738 144.684 30.0625 144.48 29.9219C144.281 29.7812 144.109 29.6074 143.965 29.4004L144.527 28.75C144.66 28.9102 144.797 29.0449 144.938 29.1543C145.078 29.2676 145.221 29.3574 145.365 29.4238C145.51 29.4902 145.654 29.5371 145.799 29.5645C145.943 29.5957 146.088 29.6113 146.232 29.6113C146.49 29.6113 146.723 29.5742 146.93 29.5C147.137 29.4258 147.314 29.3164 147.463 29.1719C147.607 29.0312 147.719 28.8555 147.797 28.6445C147.875 28.4336 147.914 28.1914 147.914 27.918V27.373C147.832 27.4668 147.744 27.5527 147.65 27.6309C147.561 27.709 147.463 27.7773 147.357 27.8359C147.193 27.9258 147.012 27.9941 146.812 28.041C146.613 28.0918 146.398 28.1172 146.168 28.1172C145.781 28.1172 145.432 28.0352 145.119 27.8711C144.807 27.707 144.543 27.4805 144.328 27.1914C144.109 26.9023 143.941 26.5625 143.824 26.1719C143.707 25.7773 143.648 25.3535 143.648 24.9004V24.7773ZM144.732 24.9004C144.732 25.209 144.764 25.502 144.826 25.7793C144.893 26.0566 144.996 26.3008 145.137 26.5117C145.273 26.7227 145.449 26.8906 145.664 27.0156C145.879 27.1367 146.137 27.1973 146.438 27.1973C146.625 27.1973 146.793 27.1758 146.941 27.1328C147.094 27.0859 147.23 27.0215 147.352 26.9395C147.469 26.8574 147.574 26.7598 147.668 26.6465C147.762 26.5332 147.844 26.4082 147.914 26.2715V23.3652C147.844 23.2324 147.762 23.1113 147.668 23.002C147.574 22.8926 147.467 22.7969 147.346 22.7148C147.225 22.6367 147.09 22.5762 146.941 22.5332C146.793 22.4863 146.629 22.4629 146.449 22.4629C146.145 22.4629 145.883 22.5254 145.664 22.6504C145.449 22.7754 145.273 22.9434 145.137 23.1543C144.996 23.3691 144.893 23.6172 144.826 23.8984C144.764 24.1758 144.732 24.4688 144.732 24.7773V24.9004ZM155.209 21.543C155.408 21.543 155.615 21.5566 155.83 21.584C156.049 21.6113 156.213 21.6484 156.322 21.6953L156.176 22.7559C155.965 22.709 155.764 22.6758 155.572 22.6562C155.385 22.6328 155.188 22.6211 154.98 22.6211C154.715 22.6211 154.475 22.6543 154.26 22.7207C154.045 22.7832 153.857 22.877 153.697 23.002C153.553 23.1113 153.426 23.2461 153.316 23.4062C153.211 23.5625 153.123 23.7383 153.053 23.9336V28H151.963V21.6602H152.994L153.041 22.5098L153.047 22.668C153.305 22.3203 153.613 22.0469 153.973 21.8477C154.336 21.6445 154.748 21.543 155.209 21.543ZM157.957 24.7715C157.957 24.3145 158.023 23.8906 158.156 23.5C158.289 23.1055 158.48 22.7637 158.73 22.4746C158.977 22.1855 159.277 21.959 159.633 21.7949C159.988 21.627 160.389 21.543 160.834 21.543C161.283 21.543 161.686 21.627 162.041 21.7949C162.4 21.959 162.705 22.1855 162.955 22.4746C163.201 22.7637 163.391 23.1055 163.523 23.5C163.656 23.8906 163.723 24.3145 163.723 24.7715V24.9004C163.723 25.3574 163.656 25.7812 163.523 26.1719C163.391 26.5625 163.201 26.9023 162.955 27.1914C162.705 27.4805 162.402 27.707 162.047 27.8711C161.691 28.0352 161.291 28.1172 160.846 28.1172C160.396 28.1172 159.992 28.0352 159.633 27.8711C159.277 27.707 158.977 27.4805 158.73 27.1914C158.48 26.9023 158.289 26.5625 158.156 26.1719C158.023 25.7812 157.957 25.3574 157.957 24.9004V24.7715ZM159.041 24.9004C159.041 25.2129 159.078 25.5117 159.152 25.7969C159.227 26.0781 159.34 26.3262 159.492 26.541C159.641 26.7559 159.828 26.9258 160.055 27.0508C160.281 27.1758 160.545 27.2383 160.846 27.2383C161.143 27.2383 161.402 27.1758 161.625 27.0508C161.852 26.9258 162.041 26.7559 162.193 26.541C162.342 26.3262 162.453 26.0781 162.527 25.7969C162.602 25.5117 162.639 25.2129 162.639 24.9004V24.7715C162.639 24.4629 162.6 24.168 162.521 23.8867C162.447 23.6016 162.336 23.3516 162.188 23.1367C162.035 22.9219 161.846 22.752 161.619 22.627C161.396 22.498 161.135 22.4336 160.834 22.4336C160.533 22.4336 160.271 22.498 160.049 22.627C159.826 22.752 159.641 22.9219 159.492 23.1367C159.34 23.3516 159.227 23.6016 159.152 23.8867C159.078 24.168 159.041 24.4629 159.041 24.7715V24.9004ZM169.646 28L169.582 27.127C169.371 27.4395 169.107 27.6836 168.791 27.8594C168.475 28.0312 168.109 28.1172 167.695 28.1172C167.363 28.1172 167.062 28.0664 166.793 27.9648C166.523 27.8594 166.293 27.6973 166.102 27.4785C165.91 27.2598 165.762 26.9824 165.656 26.6465C165.555 26.3066 165.504 25.9004 165.504 25.4277V21.6602H166.588V25.4395C166.588 25.7832 166.615 26.0684 166.67 26.2949C166.725 26.5215 166.807 26.7012 166.916 26.834C167.025 26.9707 167.158 27.0664 167.314 27.1211C167.475 27.1758 167.658 27.2031 167.865 27.2031C168.107 27.2031 168.324 27.1758 168.516 27.1211C168.707 27.0625 168.873 26.9824 169.014 26.8809C169.131 26.7988 169.232 26.7012 169.318 26.5879C169.408 26.4707 169.482 26.3438 169.541 26.207V21.6602H170.631V28H169.646ZM172.676 28V21.6602H173.648L173.725 22.5977C173.818 22.4648 173.92 22.3438 174.029 22.2344C174.143 22.1211 174.262 22.0234 174.387 21.9414C174.574 21.8164 174.777 21.7207 174.996 21.6543C175.219 21.584 175.453 21.5469 175.699 21.543C176.031 21.543 176.332 21.5898 176.602 21.6836C176.875 21.7773 177.107 21.9238 177.299 22.123C177.49 22.3223 177.637 22.5762 177.738 22.8848C177.844 23.1895 177.896 23.5527 177.896 23.9746V28H176.812V23.998C176.812 23.7168 176.781 23.4785 176.719 23.2832C176.656 23.0879 176.564 22.9297 176.443 22.8086C176.318 22.6875 176.166 22.5996 175.986 22.5449C175.811 22.4902 175.607 22.4629 175.377 22.4629C175.178 22.4629 174.992 22.4922 174.82 22.5508C174.648 22.6055 174.49 22.6816 174.346 22.7793C174.229 22.8652 174.119 22.9648 174.018 23.0781C173.92 23.1914 173.834 23.3164 173.76 23.4531V28H172.676ZM179.678 24.7773C179.678 24.3047 179.736 23.8711 179.854 23.4766C179.975 23.0781 180.146 22.7363 180.369 22.4512C180.588 22.166 180.854 21.9434 181.166 21.7832C181.479 21.623 181.828 21.543 182.215 21.543C182.594 21.543 182.924 21.6074 183.205 21.7363C183.49 21.8613 183.736 22.0449 183.943 22.2871V19H185.027V28H184.031L183.984 27.332C183.773 27.5898 183.521 27.7852 183.229 27.918C182.936 28.0508 182.594 28.1172 182.203 28.1172C181.82 28.1172 181.473 28.0352 181.16 27.8711C180.852 27.707 180.588 27.4805 180.369 27.1914C180.15 26.9023 179.98 26.5625 179.859 26.1719C179.738 25.7773 179.678 25.3535 179.678 24.9004V24.7773ZM180.762 24.9004C180.762 25.209 180.795 25.502 180.861 25.7793C180.928 26.0566 181.031 26.3008 181.172 26.5117C181.309 26.7227 181.484 26.8906 181.699 27.0156C181.914 27.1367 182.172 27.1973 182.473 27.1973C182.836 27.1973 183.137 27.1152 183.375 26.9512C183.613 26.7871 183.803 26.5664 183.943 26.2891V23.3477C183.803 23.0898 183.613 22.8789 183.375 22.7148C183.137 22.5469 182.84 22.4629 182.484 22.4629C182.18 22.4629 181.918 22.5254 181.699 22.6504C181.484 22.7754 181.309 22.9434 181.172 23.1543C181.031 23.3691 180.928 23.6172 180.861 23.8984C180.795 24.1758 180.762 24.4688 180.762 24.7773V24.9004Z" fill="#959595"/>
<defs>
<filter id="filter0_iiii_248_3282" x="8" y="-16" width="83" height="58.2" filterUnits="userSpaceOnUse" color-interpolation-filters="sRGB">
<feFlood flood-opacity="0" result="BackgroundImageFix"/>
<feBlend mode="normal" in="SourceGraphic" in2="BackgroundImageFix" result="shape"/>
<feColorMatrix in="SourceAlpha" type="matrix" values="0 0 0 0 0 0 0 0 0 0 0 0 0 0 0 0 0 0 127 0" result="hardAlpha"/>
<feMorphology radius="9" operator="dilate" in="SourceAlpha" result="effect1_innerShadow_248_3282"/>
<feOffset dy="-34"/>
<feGaussianBlur stdDeviation="15"/>
<feComposite in2="hardAlpha" operator="arithmetic" k2="-1" k3="1"/>
<feColorMatrix type="matrix" values="0 0 0 0 0.104248 0 0 0 0 0.104248 0 0 0 0 0.104248 0 0 0 1 0"/>
<feBlend mode="normal" in2="shape" result="effect1_innerShadow_248_3282"/>
<feColorMatrix in="SourceAlpha" type="matrix" values="0 0 0 0 0 0 0 0 0 0 0 0 0 0 0 0 0 0 127 0" result="hardAlpha"/>
<feMorphology radius="2.5" operator="dilate" in="SourceAlpha" result="effect2_innerShadow_248_3282"/>
<feOffset dy="-26"/>
<feGaussianBlur stdDeviation="10"/>
<feComposite in2="hardAlpha" operator="arithmetic" k2="-1" k3="1"/>
<feColorMatrix type="matrix" values="0 0 0 0 0.528433 0 0 0 0 0.528433 0 0 0 0 0.528433 0 0 0 0.46 0"/>
<feBlend mode="normal" in2="effect1_innerShadow_248_3282" result="effect2_innerShadow_248_3282"/>
<feColorMatrix in="SourceAlpha" type="matrix" values="0 0 0 0 0 0 0 0 0 0 0 0 0 0 0 0 0 0 127 0" result="hardAlpha"/>
<feMorphology radius="2" operator="dilate" in="SourceAlpha" result="effect3_innerShadow_248_3282"/>
<feOffset dy="-9"/>
<feGaussianBlur stdDeviation="6.55"/>
<feComposite in2="hardAlpha" operator="arithmetic" k2="-1" k3="1"/>
<feColorMatrix type="matrix" values="0 0 0 0 1 0 0 0 0 1 0 0 0 0 1 0 0 0 0.37 0"/>
<feBlend mode="plus-lighter" in2="effect2_innerShadow_248_3282" result="effect3_innerShadow_248_3282"/>
<feColorMatrix in="SourceAlpha" type="matrix" values="0 0 0 0 0 0 0 0 0 0 0 0 0 0 0 0 0 0 127 0" result="hardAlpha"/>
<feMorphology radius="0.8" operator="dilate" in="SourceAlpha" result="effect4_innerShadow_248_3282"/>
<feOffset dy="2"/>
<feGaussianBlur stdDeviation="1"/>
<feComposite in2="hardAlpha" operator="arithmetic" k2="-1" k3="1"/>
<feColorMatrix type="matrix" values="0 0 0 0 0.203922 0 0 0 0 0.203922 0 0 0 0 0.203922 0 0 0 0.52 0"/>
<feBlend mode="normal" in2="effect3_innerShadow_248_3282" result="effect4_innerShadow_248_3282"/>
</filter>
<linearGradient id="paint0_linear_248_3282" x1="49.5" y1="5" x2="49.5" y2="41" gradientUnits="userSpaceOnUse">
<stop/>
<stop offset="1" stop-color="#222222"/>
</linearGradient>
</defs>
</svg>
